<svg className="w-full h-full py-12"  fill="none" xmlns="http://www.w3.org/2000/svg">
<g opacity="0.2">
<path d="M753.276 2.16701C753.276 3.39361 754.196 4.49756 755.66 4.49756C756.957 4.49756 757.877 3.39361 757.877 2.16701C757.877 1.10395 756.957 0 755.66 0C754.196 0 753.276 1.10395 753.276 2.16701Z" fill="black"/>
<path d="M819.924 2.16701C819.924 3.39361 820.844 4.49756 822.308 4.49756C823.604 4.49756 824.524 3.39361 824.524 2.16701C824.524 1.10395 823.604 0 822.308 0C820.844 0 819.924 1.10395 819.924 2.16701Z" fill="black"/>
<path d="M886.571 2.16701C886.571 3.39361 887.491 4.49756 888.955 4.49756C890.252 4.49756 891.172 3.39361 891.172 2.16701C891.172 1.10395 890.252 0 888.955 0C887.491 0 886.571 1.10395 886.571 2.16701Z" fill="black"/>
<path d="M953.219 2.16701C953.219 3.39361 954.139 4.49756 955.603 4.49756C956.899 4.49756 957.82 3.39361 957.82 2.16701C957.82 1.10395 956.899 0 955.603 0C954.139 0 953.219 1.10395 953.219 2.16701Z" fill="black"/>
<path d="M1019.87 2.16701C1019.87 3.39361 1020.79 4.49756 1022.25 4.49756C1023.55 4.49756 1024.47 3.39361 1024.47 2.16701C1024.47 1.10395 1023.55 0 1022.25 0C1020.79 0 1019.87 1.10395 1019.87 2.16701Z" fill="black"/>
<path d="M1086.51 2.16701C1086.51 3.39361 1087.43 4.49756 1088.9 4.49756C1090.19 4.49756 1091.11 3.39361 1091.11 2.16701C1091.11 1.10395 1090.19 0 1088.9 0C1087.43 0 1086.51 1.10395 1086.51 2.16701Z" fill="black"/>
<path d="M1153.16 2.16701C1153.16 3.39361 1154.08 4.49756 1155.55 4.49756C1156.84 4.49756 1157.76 3.39361 1157.76 2.16701C1157.76 1.10395 1156.84 0 1155.55 0C1154.08 0 1153.16 1.10395 1153.16 2.16701Z" fill="black"/>
<path d="M1219.81 2.16701C1219.81 3.39361 1220.73 4.49756 1222.19 4.49756C1223.49 4.49756 1224.41 3.39361 1224.41 2.16701C1224.41 1.10395 1223.49 0 1222.19 0C1220.73 0 1219.81 1.10395 1219.81 2.16701Z" fill="black"/>
<path d="M1286.46 2.16701C1286.46 3.39361 1287.38 4.49756 1288.84 4.49756C1290.14 4.49756 1291.06 3.39361 1291.06 2.16701C1291.06 1.10395 1290.14 0 1288.84 0C1287.38 0 1286.46 1.10395 1286.46 2.16701Z" fill="black"/>
<path d="M1353.1 2.16701C1353.1 3.39361 1354.02 4.49756 1355.49 4.49756C1356.78 4.49756 1357.7 3.39361 1357.7 2.16701C1357.7 1.10395 1356.78 0 1355.49 0C1354.02 0 1353.1 1.10395 1353.1 2.16701Z" fill="black"/>
<path d="M1419.75 2.16701C1419.75 3.39361 1420.67 4.49756 1422.14 4.49756C1423.43 4.49756 1424.35 3.39361 1424.35 2.16701C1424.35 1.10395 1423.43 0 1422.14 0C1420.67 0 1419.75 1.10395 1419.75 2.16701Z" fill="black"/>
<path d="M1486.4 2.16701C1486.4 3.39361 1487.32 4.49756 1488.78 4.49756C1490.08 4.49756 1491 3.39361 1491 2.16701C1491 1.10395 1490.08 0 1488.78 0C1487.32 0 1486.4 1.10395 1486.4 2.16701Z" fill="black"/>
<path d="M753.276 62.3616C753.276 63.5882 754.196 64.6921 755.66 64.6921C756.957 64.6921 757.877 63.5882 757.877 62.3616C757.877 61.2985 756.957 60.1946 755.66 60.1946C754.196 60.1946 753.276 61.2985 753.276 62.3616Z" fill="black"/>
<path d="M819.924 62.3616C819.924 63.5882 820.844 64.6921 822.308 64.6921C823.604 64.6921 824.524 63.5882 824.524 62.3616C824.524 61.2985 823.604 60.1946 822.308 60.1946C820.844 60.1946 819.924 61.2985 819.924 62.3616Z" fill="black"/>
<path d="M886.571 62.3616C886.571 63.5882 887.491 64.6921 888.955 64.6921C890.252 64.6921 891.172 63.5882 891.172 62.3616C891.172 61.2985 890.252 60.1946 888.955 60.1946C887.491 60.1946 886.571 61.2985 886.571 62.3616Z" fill="black"/>
<path d="M953.219 62.3616C953.219 63.5882 954.139 64.6921 955.603 64.6921C956.899 64.6921 957.82 63.5882 957.82 62.3616C957.82 61.2985 956.899 60.1946 955.603 60.1946C954.139 60.1946 953.219 61.2985 953.219 62.3616Z" fill="black"/>
<path d="M1019.87 62.3616C1019.87 63.5882 1020.79 64.6921 1022.25 64.6921C1023.55 64.6921 1024.47 63.5882 1024.47 62.3616C1024.47 61.2985 1023.55 60.1946 1022.25 60.1946C1020.79 60.1946 1019.87 61.2985 1019.87 62.3616Z" fill="black"/>
<path d="M1086.51 62.3616C1086.51 63.5882 1087.43 64.6921 1088.9 64.6921C1090.19 64.6921 1091.11 63.5882 1091.11 62.3616C1091.11 61.2985 1090.19 60.1946 1088.9 60.1946C1087.43 60.1946 1086.51 61.2985 1086.51 62.3616Z" fill="black"/>
<path d="M1153.16 62.3616C1153.16 63.5882 1154.08 64.6921 1155.55 64.6921C1156.84 64.6921 1157.76 63.5882 1157.76 62.3616C1157.76 61.2985 1156.84 60.1946 1155.55 60.1946C1154.08 60.1946 1153.16 61.2985 1153.16 62.3616Z" fill="black"/>
<path d="M1219.81 62.3616C1219.81 63.5882 1220.73 64.6921 1222.19 64.6921C1223.49 64.6921 1224.41 63.5882 1224.41 62.3616C1224.41 61.2985 1223.49 60.1946 1222.19 60.1946C1220.73 60.1946 1219.81 61.2985 1219.81 62.3616Z" fill="black"/>
<path d="M1286.46 62.3616C1286.46 63.5882 1287.38 64.6921 1288.84 64.6921C1290.14 64.6921 1291.06 63.5882 1291.06 62.3616C1291.06 61.2985 1290.14 60.1946 1288.84 60.1946C1287.38 60.1946 1286.46 61.2985 1286.46 62.3616Z" fill="black"/>
<path d="M1353.1 62.3616C1353.1 63.5882 1354.02 64.6921 1355.49 64.6921C1356.78 64.6921 1357.7 63.5882 1357.7 62.3616C1357.7 61.2985 1356.78 60.1946 1355.49 60.1946C1354.02 60.1946 1353.1 61.2985 1353.1 62.3616Z" fill="black"/>
<path d="M1419.75 62.3616C1419.75 63.5882 1420.67 64.6921 1422.14 64.6921C1423.43 64.6921 1424.35 63.5882 1424.35 62.3616C1424.35 61.2985 1423.43 60.1946 1422.14 60.1946C1420.67 60.1946 1419.75 61.2985 1419.75 62.3616Z" fill="black"/>
<path d="M1486.4 62.3616C1486.4 63.5882 1487.32 64.6921 1488.78 64.6921C1490.08 64.6921 1491 63.5882 1491 62.3616C1491 61.2985 1490.08 60.1946 1488.78 60.1946C1487.32 60.1946 1486.4 61.2985 1486.4 62.3616Z" fill="black"/>
<path d="M753.276 122.556C753.276 123.783 754.196 124.887 755.66 124.887C756.957 124.887 757.877 123.783 757.877 122.556C757.877 121.493 756.957 120.389 755.66 120.389C754.196 120.389 753.276 121.493 753.276 122.556Z" fill="black"/>
<path d="M819.924 122.556C819.924 123.783 820.844 124.887 822.308 124.887C823.604 124.887 824.524 123.783 824.524 122.556C824.524 121.493 823.604 120.389 822.308 120.389C820.844 120.389 819.924 121.493 819.924 122.556Z" fill="black"/>
<path d="M886.571 122.556C886.571 123.783 887.491 124.887 888.955 124.887C890.252 124.887 891.172 123.783 891.172 122.556C891.172 121.493 890.252 120.389 888.955 120.389C887.491 120.389 886.571 121.493 886.571 122.556Z" fill="black"/>
<path d="M953.219 122.556C953.219 123.783 954.139 124.887 955.603 124.887C956.899 124.887 957.82 123.783 957.82 122.556C957.82 121.493 956.899 120.389 955.603 120.389C954.139 120.389 953.219 121.493 953.219 122.556Z" fill="black"/>
<path d="M1019.87 122.556C1019.87 123.783 1020.79 124.887 1022.25 124.887C1023.55 124.887 1024.47 123.783 1024.47 122.556C1024.47 121.493 1023.55 120.389 1022.25 120.389C1020.79 120.389 1019.87 121.493 1019.87 122.556Z" fill="black"/>
<path d="M1086.51 122.556C1086.51 123.783 1087.43 124.887 1088.9 124.887C1090.19 124.887 1091.11 123.783 1091.11 122.556C1091.11 121.493 1090.19 120.389 1088.9 120.389C1087.43 120.389 1086.51 121.493 1086.51 122.556Z" fill="black"/>
<path d="M1153.16 122.556C1153.16 123.783 1154.08 124.887 1155.55 124.887C1156.84 124.887 1157.76 123.783 1157.76 122.556C1157.76 121.493 1156.84 120.389 1155.55 120.389C1154.08 120.389 1153.16 121.493 1153.16 122.556Z" fill="black"/>
<path d="M1219.81 122.556C1219.81 123.783 1220.73 124.887 1222.19 124.887C1223.49 124.887 1224.41 123.783 1224.41 122.556C1224.41 121.493 1223.49 120.389 1222.19 120.389C1220.73 120.389 1219.81 121.493 1219.81 122.556Z" fill="black"/>
<path d="M1286.46 122.556C1286.46 123.783 1287.38 124.887 1288.84 124.887C1290.14 124.887 1291.06 123.783 1291.06 122.556C1291.06 121.493 1290.14 120.389 1288.84 120.389C1287.38 120.389 1286.46 121.493 1286.46 122.556Z" fill="black"/>
<path d="M1353.1 122.556C1353.1 123.783 1354.02 124.887 1355.49 124.887C1356.78 124.887 1357.7 123.783 1357.7 122.556C1357.7 121.493 1356.78 120.389 1355.49 120.389C1354.02 120.389 1353.1 121.493 1353.1 122.556Z" fill="black"/>
<path d="M1419.75 122.556C1419.75 123.783 1420.67 124.887 1422.14 124.887C1423.43 124.887 1424.35 123.783 1424.35 122.556C1424.35 121.493 1423.43 120.389 1422.14 120.389C1420.67 120.389 1419.75 121.493 1419.75 122.556Z" fill="black"/>
<path d="M1486.4 122.556C1486.4 123.783 1487.32 124.887 1488.78 124.887C1490.08 124.887 1491 123.783 1491 122.556C1491 121.493 1490.08 120.389 1488.78 120.389C1487.32 120.389 1486.4 121.493 1486.4 122.556Z" fill="black"/>
<path d="M753.276 182.751C753.276 183.977 754.196 185.081 755.66 185.081C756.957 185.081 757.877 183.977 757.877 182.751C757.877 181.688 756.957 180.584 755.66 180.584C754.196 180.584 753.276 181.688 753.276 182.751Z" fill="black"/>
<path d="M819.924 182.751C819.924 183.977 820.844 185.081 822.308 185.081C823.604 185.081 824.524 183.977 824.524 182.751C824.524 181.688 823.604 180.584 822.308 180.584C820.844 180.584 819.924 181.688 819.924 182.751Z" fill="black"/>
<path d="M886.571 182.751C886.571 183.977 887.491 185.081 888.955 185.081C890.252 185.081 891.172 183.977 891.172 182.751C891.172 181.688 890.252 180.584 888.955 180.584C887.491 180.584 886.571 181.688 886.571 182.751Z" fill="black"/>
<path d="M953.219 182.751C953.219 183.977 954.139 185.081 955.603 185.081C956.899 185.081 957.82 183.977 957.82 182.751C957.82 181.688 956.899 180.584 955.603 180.584C954.139 180.584 953.219 181.688 953.219 182.751Z" fill="black"/>
<path d="M1019.87 182.751C1019.87 183.977 1020.79 185.081 1022.25 185.081C1023.55 185.081 1024.47 183.977 1024.47 182.751C1024.47 181.688 1023.55 180.584 1022.25 180.584C1020.79 180.584 1019.87 181.688 1019.87 182.751Z" fill="black"/>
<path d="M1086.51 182.751C1086.51 183.977 1087.43 185.081 1088.9 185.081C1090.19 185.081 1091.11 183.977 1091.11 182.751C1091.11 181.688 1090.19 180.584 1088.9 180.584C1087.43 180.584 1086.51 181.688 1086.51 182.751Z" fill="black"/>
<path d="M1153.16 182.751C1153.16 183.977 1154.08 185.081 1155.55 185.081C1156.84 185.081 1157.76 183.977 1157.76 182.751C1157.76 181.688 1156.84 180.584 1155.55 180.584C1154.08 180.584 1153.16 181.688 1153.16 182.751Z" fill="black"/>
<path d="M1219.81 182.751C1219.81 183.977 1220.73 185.081 1222.19 185.081C1223.49 185.081 1224.41 183.977 1224.41 182.751C1224.41 181.688 1223.49 180.584 1222.19 180.584C1220.73 180.584 1219.81 181.688 1219.81 182.751Z" fill="black"/>
<path d="M1286.46 182.751C1286.46 183.977 1287.38 185.081 1288.84 185.081C1290.14 185.081 1291.06 183.977 1291.06 182.751C1291.06 181.688 1290.14 180.584 1288.84 180.584C1287.38 180.584 1286.46 181.688 1286.46 182.751Z" fill="black"/>
<path d="M1353.1 182.751C1353.1 183.977 1354.02 185.081 1355.49 185.081C1356.78 185.081 1357.7 183.977 1357.7 182.751C1357.7 181.688 1356.78 180.584 1355.49 180.584C1354.02 180.584 1353.1 181.688 1353.1 182.751Z" fill="black"/>
<path d="M1419.75 182.751C1419.75 183.977 1420.67 185.081 1422.14 185.081C1423.43 185.081 1424.35 183.977 1424.35 182.751C1424.35 181.688 1423.43 180.584 1422.14 180.584C1420.67 180.584 1419.75 181.688 1419.75 182.751Z" fill="black"/>
<path d="M1486.4 182.751C1486.4 183.977 1487.32 185.081 1488.78 185.081C1490.08 185.081 1491 183.977 1491 182.751C1491 181.688 1490.08 180.584 1488.78 180.584C1487.32 180.584 1486.4 181.688 1486.4 182.751Z" fill="black"/>
<path d="M753.276 242.945C753.276 244.172 754.196 245.276 755.66 245.276C756.957 245.276 757.877 244.172 757.877 242.945C757.877 241.882 756.957 240.778 755.66 240.778C754.196 240.778 753.276 241.882 753.276 242.945Z" fill="black"/>
<path d="M819.924 242.945C819.924 244.172 820.844 245.276 822.308 245.276C823.604 245.276 824.524 244.172 824.524 242.945C824.524 241.882 823.604 240.778 822.308 240.778C820.844 240.778 819.924 241.882 819.924 242.945Z" fill="black"/>
<path d="M886.571 242.945C886.571 244.172 887.491 245.276 888.955 245.276C890.252 245.276 891.172 244.172 891.172 242.945C891.172 241.882 890.252 240.778 888.955 240.778C887.491 240.778 886.571 241.882 886.571 242.945Z" fill="black"/>
<path d="M953.219 242.945C953.219 244.172 954.139 245.276 955.603 245.276C956.899 245.276 957.82 244.172 957.82 242.945C957.82 241.882 956.899 240.778 955.603 240.778C954.139 240.778 953.219 241.882 953.219 242.945Z" fill="black"/>
<path d="M1019.87 242.945C1019.87 244.172 1020.79 245.276 1022.25 245.276C1023.55 245.276 1024.47 244.172 1024.47 242.945C1024.47 241.882 1023.55 240.778 1022.25 240.778C1020.79 240.778 1019.87 241.882 1019.87 242.945Z" fill="black"/>
<path d="M1086.51 242.945C1086.51 244.172 1087.43 245.276 1088.9 245.276C1090.19 245.276 1091.11 244.172 1091.11 242.945C1091.11 241.882 1090.19 240.778 1088.9 240.778C1087.43 240.778 1086.51 241.882 1086.51 242.945Z" fill="black"/>
<path d="M1153.16 242.945C1153.16 244.172 1154.08 245.276 1155.55 245.276C1156.84 245.276 1157.76 244.172 1157.76 242.945C1157.76 241.882 1156.84 240.778 1155.55 240.778C1154.08 240.778 1153.16 241.882 1153.16 242.945Z" fill="black"/>
<path d="M1219.81 242.945C1219.81 244.172 1220.73 245.276 1222.19 245.276C1223.49 245.276 1224.41 244.172 1224.41 242.945C1224.41 241.882 1223.49 240.778 1222.19 240.778C1220.73 240.778 1219.81 241.882 1219.81 242.945Z" fill="black"/>
<path d="M1286.46 242.945C1286.46 244.172 1287.38 245.276 1288.84 245.276C1290.14 245.276 1291.06 244.172 1291.06 242.945C1291.06 241.882 1290.14 240.778 1288.84 240.778C1287.38 240.778 1286.46 241.882 1286.46 242.945Z" fill="black"/>
<path d="M1353.1 242.945C1353.1 244.172 1354.02 245.276 1355.49 245.276C1356.78 245.276 1357.7 244.172 1357.7 242.945C1357.7 241.882 1356.78 240.778 1355.49 240.778C1354.02 240.778 1353.1 241.882 1353.1 242.945Z" fill="black"/>
<path d="M1419.75 242.945C1419.75 244.172 1420.67 245.276 1422.14 245.276C1423.43 245.276 1424.35 244.172 1424.35 242.945C1424.35 241.882 1423.43 240.778 1422.14 240.778C1420.67 240.778 1419.75 241.882 1419.75 242.945Z" fill="black"/>
<path d="M1486.4 242.945C1486.4 244.172 1487.32 245.276 1488.78 245.276C1490.08 245.276 1491 244.172 1491 242.945C1491 241.882 1490.08 240.778 1488.78 240.778C1487.32 240.778 1486.4 241.882 1486.4 242.945Z" fill="black"/>
<path d="M753.276 303.14C753.276 304.366 754.196 305.47 755.66 305.47C756.957 305.47 757.877 304.366 757.877 303.14C757.877 302.077 756.957 300.973 755.66 300.973C754.196 300.973 753.276 302.077 753.276 303.14Z" fill="black"/>
<path d="M819.924 303.14C819.924 304.366 820.844 305.47 822.308 305.47C823.604 305.47 824.524 304.366 824.524 303.14C824.524 302.077 823.604 300.973 822.308 300.973C820.844 300.973 819.924 302.077 819.924 303.14Z" fill="black"/>
<path d="M886.571 303.14C886.571 304.366 887.491 305.47 888.955 305.47C890.252 305.47 891.172 304.366 891.172 303.14C891.172 302.077 890.252 300.973 888.955 300.973C887.491 300.973 886.571 302.077 886.571 303.14Z" fill="black"/>
<path d="M953.219 303.14C953.219 304.366 954.139 305.47 955.603 305.47C956.899 305.47 957.82 304.366 957.82 303.14C957.82 302.077 956.899 300.973 955.603 300.973C954.139 300.973 953.219 302.077 953.219 303.14Z" fill="black"/>
<path d="M1019.87 303.14C1019.87 304.366 1020.79 305.47 1022.25 305.47C1023.55 305.47 1024.47 304.366 1024.47 303.14C1024.47 302.077 1023.55 300.973 1022.25 300.973C1020.79 300.973 1019.87 302.077 1019.87 303.14Z" fill="black"/>
<path d="M1086.51 303.14C1086.51 304.366 1087.43 305.47 1088.9 305.47C1090.19 305.47 1091.11 304.366 1091.11 303.14C1091.11 302.077 1090.19 300.973 1088.9 300.973C1087.43 300.973 1086.51 302.077 1086.51 303.14Z" fill="black"/>
<path d="M1153.16 303.14C1153.16 304.366 1154.08 305.47 1155.55 305.47C1156.84 305.47 1157.76 304.366 1157.76 303.14C1157.76 302.077 1156.84 300.973 1155.55 300.973C1154.08 300.973 1153.16 302.077 1153.16 303.14Z" fill="black"/>
<path d="M1219.81 303.14C1219.81 304.366 1220.73 305.47 1222.19 305.47C1223.49 305.47 1224.41 304.366 1224.41 303.14C1224.41 302.077 1223.49 300.973 1222.19 300.973C1220.73 300.973 1219.81 302.077 1219.81 303.14Z" fill="black"/>
<path d="M1286.46 303.14C1286.46 304.366 1287.38 305.47 1288.84 305.47C1290.14 305.47 1291.06 304.366 1291.06 303.14C1291.06 302.077 1290.14 300.973 1288.84 300.973C1287.38 300.973 1286.46 302.077 1286.46 303.14Z" fill="black"/>
<path d="M1353.1 303.14C1353.1 304.366 1354.02 305.47 1355.49 305.47C1356.78 305.47 1357.7 304.366 1357.7 303.14C1357.7 302.077 1356.78 300.973 1355.49 300.973C1354.02 300.973 1353.1 302.077 1353.1 303.14Z" fill="black"/>
<path d="M1419.75 303.14C1419.75 304.366 1420.67 305.47 1422.14 305.47C1423.43 305.47 1424.35 304.366 1424.35 303.14C1424.35 302.077 1423.43 300.973 1422.14 300.973C1420.67 300.973 1419.75 302.077 1419.75 303.14Z" fill="black"/>
<path d="M1486.4 303.14C1486.4 304.366 1487.32 305.47 1488.78 305.47C1490.08 305.47 1491 304.366 1491 303.14C1491 302.077 1490.08 300.973 1488.78 300.973C1487.32 300.973 1486.4 302.077 1486.4 303.14Z" fill="black"/>
<path d="M753.276 363.334C753.276 364.561 754.196 365.665 755.66 365.665C756.957 365.665 757.877 364.561 757.877 363.334C757.877 362.271 756.957 361.167 755.66 361.167C754.196 361.167 753.276 362.271 753.276 363.334Z" fill="black"/>
<path d="M819.924 363.334C819.924 364.561 820.844 365.665 822.308 365.665C823.604 365.665 824.524 364.561 824.524 363.334C824.524 362.271 823.604 361.167 822.308 361.167C820.844 361.167 819.924 362.271 819.924 363.334Z" fill="black"/>
<path d="M886.571 363.334C886.571 364.561 887.491 365.665 888.955 365.665C890.252 365.665 891.172 364.561 891.172 363.334C891.172 362.271 890.252 361.167 888.955 361.167C887.491 361.167 886.571 362.271 886.571 363.334Z" fill="black"/>
<path d="M953.219 363.334C953.219 364.561 954.139 365.665 955.603 365.665C956.899 365.665 957.82 364.561 957.82 363.334C957.82 362.271 956.899 361.167 955.603 361.167C954.139 361.167 953.219 362.271 953.219 363.334Z" fill="black"/>
<path d="M1019.87 363.334C1019.87 364.561 1020.79 365.665 1022.25 365.665C1023.55 365.665 1024.47 364.561 1024.47 363.334C1024.47 362.271 1023.55 361.167 1022.25 361.167C1020.79 361.167 1019.87 362.271 1019.87 363.334Z" fill="black"/>
<path d="M1086.51 363.334C1086.51 364.561 1087.43 365.665 1088.9 365.665C1090.19 365.665 1091.11 364.561 1091.11 363.334C1091.11 362.271 1090.19 361.167 1088.9 361.167C1087.43 361.167 1086.51 362.271 1086.51 363.334Z" fill="black"/>
<path d="M1153.16 363.334C1153.16 364.561 1154.08 365.665 1155.55 365.665C1156.84 365.665 1157.76 364.561 1157.76 363.334C1157.76 362.271 1156.84 361.167 1155.55 361.167C1154.08 361.167 1153.16 362.271 1153.16 363.334Z" fill="black"/>
<path d="M1219.81 363.334C1219.81 364.561 1220.73 365.665 1222.19 365.665C1223.49 365.665 1224.41 364.561 1224.41 363.334C1224.41 362.271 1223.49 361.167 1222.19 361.167C1220.73 361.167 1219.81 362.271 1219.81 363.334Z" fill="black"/>
<path d="M1286.46 363.334C1286.46 364.561 1287.38 365.665 1288.84 365.665C1290.14 365.665 1291.06 364.561 1291.06 363.334C1291.06 362.271 1290.14 361.167 1288.84 361.167C1287.38 361.167 1286.46 362.271 1286.46 363.334Z" fill="black"/>
<path d="M1353.1 363.334C1353.1 364.561 1354.02 365.665 1355.49 365.665C1356.78 365.665 1357.7 364.561 1357.7 363.334C1357.7 362.271 1356.78 361.167 1355.49 361.167C1354.02 361.167 1353.1 362.271 1353.1 363.334Z" fill="black"/>
<path d="M1419.75 363.334C1419.75 364.561 1420.67 365.665 1422.14 365.665C1423.43 365.665 1424.35 364.561 1424.35 363.334C1424.35 362.271 1423.43 361.167 1422.14 361.167C1420.67 361.167 1419.75 362.271 1419.75 363.334Z" fill="black"/>
<path d="M1486.4 363.334C1486.4 364.561 1487.32 365.665 1488.78 365.665C1490.08 365.665 1491 364.561 1491 363.334C1491 362.271 1490.08 361.167 1488.78 361.167C1487.32 361.167 1486.4 362.271 1486.4 363.334Z" fill="black"/>
<path d="M753.276 423.529C753.276 424.756 754.196 425.86 755.66 425.86C756.957 425.86 757.877 424.756 757.877 423.529C757.877 422.466 756.957 421.362 755.66 421.362C754.196 421.362 753.276 422.466 753.276 423.529Z" fill="black"/>
<path d="M819.924 423.529C819.924 424.756 820.844 425.86 822.308 425.86C823.604 425.86 824.524 424.756 824.524 423.529C824.524 422.466 823.604 421.362 822.308 421.362C820.844 421.362 819.924 422.466 819.924 423.529Z" fill="black"/>
<path d="M886.571 423.529C886.571 424.756 887.491 425.86 888.955 425.86C890.252 425.86 891.172 424.756 891.172 423.529C891.172 422.466 890.252 421.362 888.955 421.362C887.491 421.362 886.571 422.466 886.571 423.529Z" fill="black"/>
<path d="M953.219 423.529C953.219 424.756 954.139 425.86 955.603 425.86C956.899 425.86 957.82 424.756 957.82 423.529C957.82 422.466 956.899 421.362 955.603 421.362C954.139 421.362 953.219 422.466 953.219 423.529Z" fill="black"/>
<path d="M1019.87 423.529C1019.87 424.756 1020.79 425.86 1022.25 425.86C1023.55 425.86 1024.47 424.756 1024.47 423.529C1024.47 422.466 1023.55 421.362 1022.25 421.362C1020.79 421.362 1019.87 422.466 1019.87 423.529Z" fill="black"/>
<path d="M1086.51 423.529C1086.51 424.756 1087.43 425.86 1088.9 425.86C1090.19 425.86 1091.11 424.756 1091.11 423.529C1091.11 422.466 1090.19 421.362 1088.9 421.362C1087.43 421.362 1086.51 422.466 1086.51 423.529Z" fill="black"/>
<path d="M1153.16 423.529C1153.16 424.756 1154.08 425.86 1155.55 425.86C1156.84 425.86 1157.76 424.756 1157.76 423.529C1157.76 422.466 1156.84 421.362 1155.55 421.362C1154.08 421.362 1153.16 422.466 1153.16 423.529Z" fill="black"/>
<path d="M1219.81 423.529C1219.81 424.756 1220.73 425.86 1222.19 425.86C1223.49 425.86 1224.41 424.756 1224.41 423.529C1224.41 422.466 1223.49 421.362 1222.19 421.362C1220.73 421.362 1219.81 422.466 1219.81 423.529Z" fill="black"/>
<path d="M1286.46 423.529C1286.46 424.756 1287.38 425.86 1288.84 425.86C1290.14 425.86 1291.06 424.756 1291.06 423.529C1291.06 422.466 1290.14 421.362 1288.84 421.362C1287.38 421.362 1286.46 422.466 1286.46 423.529Z" fill="black"/>
<path d="M1353.1 423.529C1353.1 424.756 1354.02 425.86 1355.49 425.86C1356.78 425.86 1357.7 424.756 1357.7 423.529C1357.7 422.466 1356.78 421.362 1355.49 421.362C1354.02 421.362 1353.1 422.466 1353.1 423.529Z" fill="black"/>
<path d="M1419.75 423.529C1419.75 424.756 1420.67 425.86 1422.14 425.86C1423.43 425.86 1424.35 424.756 1424.35 423.529C1424.35 422.466 1423.43 421.362 1422.14 421.362C1420.67 421.362 1419.75 422.466 1419.75 423.529Z" fill="black"/>
<path d="M1486.4 423.529C1486.4 424.756 1487.32 425.86 1488.78 425.86C1490.08 425.86 1491 424.756 1491 423.529C1491 422.466 1490.08 421.362 1488.78 421.362C1487.32 421.362 1486.4 422.466 1486.4 423.529Z" fill="black"/>
<path d="M753.276 483.724C753.276 484.95 754.196 486.054 755.66 486.054C756.957 486.054 757.877 484.95 757.877 483.724C757.877 482.661 756.957 481.557 755.66 481.557C754.196 481.557 753.276 482.661 753.276 483.724Z" fill="black"/>
<path d="M819.924 483.724C819.924 484.95 820.844 486.054 822.308 486.054C823.604 486.054 824.524 484.95 824.524 483.724C824.524 482.661 823.604 481.557 822.308 481.557C820.844 481.557 819.924 482.661 819.924 483.724Z" fill="black"/>
<path d="M886.571 483.724C886.571 484.95 887.491 486.054 888.955 486.054C890.252 486.054 891.172 484.95 891.172 483.724C891.172 482.661 890.252 481.557 888.955 481.557C887.491 481.557 886.571 482.661 886.571 483.724Z" fill="black"/>
<path d="M953.219 483.724C953.219 484.95 954.139 486.054 955.603 486.054C956.899 486.054 957.82 484.95 957.82 483.724C957.82 482.661 956.899 481.557 955.603 481.557C954.139 481.557 953.219 482.661 953.219 483.724Z" fill="black"/>
<path d="M1019.87 483.724C1019.87 484.95 1020.79 486.054 1022.25 486.054C1023.55 486.054 1024.47 484.95 1024.47 483.724C1024.47 482.661 1023.55 481.557 1022.25 481.557C1020.79 481.557 1019.87 482.661 1019.87 483.724Z" fill="black"/>
<path d="M1086.51 483.724C1086.51 484.95 1087.43 486.054 1088.9 486.054C1090.19 486.054 1091.11 484.95 1091.11 483.724C1091.11 482.661 1090.19 481.557 1088.9 481.557C1087.43 481.557 1086.51 482.661 1086.51 483.724Z" fill="black"/>
<path d="M1153.16 483.724C1153.16 484.95 1154.08 486.054 1155.55 486.054C1156.84 486.054 1157.76 484.95 1157.76 483.724C1157.76 482.661 1156.84 481.557 1155.55 481.557C1154.08 481.557 1153.16 482.661 1153.16 483.724Z" fill="black"/>
<path d="M1219.81 483.724C1219.81 484.95 1220.73 486.054 1222.19 486.054C1223.49 486.054 1224.41 484.95 1224.41 483.724C1224.41 482.661 1223.49 481.557 1222.19 481.557C1220.73 481.557 1219.81 482.661 1219.81 483.724Z" fill="black"/>
<path d="M1286.46 483.724C1286.46 484.95 1287.38 486.054 1288.84 486.054C1290.14 486.054 1291.06 484.95 1291.06 483.724C1291.06 482.661 1290.14 481.557 1288.84 481.557C1287.38 481.557 1286.46 482.661 1286.46 483.724Z" fill="black"/>
<path d="M1353.1 483.724C1353.1 484.95 1354.02 486.054 1355.49 486.054C1356.78 486.054 1357.7 484.95 1357.7 483.724C1357.7 482.661 1356.78 481.557 1355.49 481.557C1354.02 481.557 1353.1 482.661 1353.1 483.724Z" fill="black"/>
<path d="M1419.75 483.724C1419.75 484.95 1420.67 486.054 1422.14 486.054C1423.43 486.054 1424.35 484.95 1424.35 483.724C1424.35 482.661 1423.43 481.557 1422.14 481.557C1420.67 481.557 1419.75 482.661 1419.75 483.724Z" fill="black"/>
<path d="M1486.4 483.724C1486.4 484.95 1487.32 486.054 1488.78 486.054C1490.08 486.054 1491 484.95 1491 483.724C1491 482.661 1490.08 481.557 1488.78 481.557C1487.32 481.557 1486.4 482.661 1486.4 483.724Z" fill="black"/>
<path d="M753.276 543.918C753.276 545.145 754.196 546.249 755.66 546.249C756.957 546.249 757.877 545.145 757.877 543.918C757.877 542.855 756.957 541.751 755.66 541.751C754.196 541.751 753.276 542.855 753.276 543.918Z" fill="black"/>
<path d="M819.924 543.918C819.924 545.145 820.844 546.249 822.308 546.249C823.604 546.249 824.524 545.145 824.524 543.918C824.524 542.855 823.604 541.751 822.308 541.751C820.844 541.751 819.924 542.855 819.924 543.918Z" fill="black"/>
<path d="M886.571 543.918C886.571 545.145 887.491 546.249 888.955 546.249C890.252 546.249 891.172 545.145 891.172 543.918C891.172 542.855 890.252 541.751 888.955 541.751C887.491 541.751 886.571 542.855 886.571 543.918Z" fill="black"/>
<path d="M953.219 543.918C953.219 545.145 954.139 546.249 955.603 546.249C956.899 546.249 957.82 545.145 957.82 543.918C957.82 542.855 956.899 541.751 955.603 541.751C954.139 541.751 953.219 542.855 953.219 543.918Z" fill="black"/>
<path d="M1019.87 543.918C1019.87 545.145 1020.79 546.249 1022.25 546.249C1023.55 546.249 1024.47 545.145 1024.47 543.918C1024.47 542.855 1023.55 541.751 1022.25 541.751C1020.79 541.751 1019.87 542.855 1019.87 543.918Z" fill="black"/>
<path d="M1086.51 543.918C1086.51 545.145 1087.43 546.249 1088.9 546.249C1090.19 546.249 1091.11 545.145 1091.11 543.918C1091.11 542.855 1090.19 541.751 1088.9 541.751C1087.43 541.751 1086.51 542.855 1086.51 543.918Z" fill="black"/>
<path d="M1153.16 543.918C1153.16 545.145 1154.08 546.249 1155.55 546.249C1156.84 546.249 1157.76 545.145 1157.76 543.918C1157.76 542.855 1156.84 541.751 1155.55 541.751C1154.08 541.751 1153.16 542.855 1153.16 543.918Z" fill="black"/>
<path d="M1219.81 543.918C1219.81 545.145 1220.73 546.249 1222.19 546.249C1223.49 546.249 1224.41 545.145 1224.41 543.918C1224.41 542.855 1223.49 541.751 1222.19 541.751C1220.73 541.751 1219.81 542.855 1219.81 543.918Z" fill="black"/>
<path d="M1286.46 543.918C1286.46 545.145 1287.38 546.249 1288.84 546.249C1290.14 546.249 1291.06 545.145 1291.06 543.918C1291.06 542.855 1290.14 541.751 1288.84 541.751C1287.38 541.751 1286.46 542.855 1286.46 543.918Z" fill="black"/>
<path d="M1353.1 543.918C1353.1 545.145 1354.02 546.249 1355.49 546.249C1356.78 546.249 1357.7 545.145 1357.7 543.918C1357.7 542.855 1356.78 541.751 1355.49 541.751C1354.02 541.751 1353.1 542.855 1353.1 543.918Z" fill="black"/>
<path d="M1419.75 543.918C1419.75 545.145 1420.67 546.249 1422.14 546.249C1423.43 546.249 1424.35 545.145 1424.35 543.918C1424.35 542.855 1423.43 541.751 1422.14 541.751C1420.67 541.751 1419.75 542.855 1419.75 543.918Z" fill="black"/>
<path d="M1486.4 543.918C1486.4 545.145 1487.32 546.249 1488.78 546.249C1490.08 546.249 1491 545.145 1491 543.918C1491 542.855 1490.08 541.751 1488.78 541.751C1487.32 541.751 1486.4 542.855 1486.4 543.918Z" fill="black"/>
<path d="M753.276 604.113C753.276 605.339 754.196 606.443 755.66 606.443C756.957 606.443 757.877 605.339 757.877 604.113C757.877 603.05 756.957 601.946 755.66 601.946C754.196 601.946 753.276 603.05 753.276 604.113Z" fill="black"/>
<path d="M819.924 604.113C819.924 605.339 820.844 606.443 822.308 606.443C823.604 606.443 824.524 605.339 824.524 604.113C824.524 603.05 823.604 601.946 822.308 601.946C820.844 601.946 819.924 603.05 819.924 604.113Z" fill="black"/>
<path d="M886.571 604.113C886.571 605.339 887.491 606.443 888.955 606.443C890.252 606.443 891.172 605.339 891.172 604.113C891.172 603.05 890.252 601.946 888.955 601.946C887.491 601.946 886.571 603.05 886.571 604.113Z" fill="black"/>
<path d="M953.219 604.113C953.219 605.339 954.139 606.443 955.603 606.443C956.899 606.443 957.82 605.339 957.82 604.113C957.82 603.05 956.899 601.946 955.603 601.946C954.139 601.946 953.219 603.05 953.219 604.113Z" fill="black"/>
<path d="M1019.87 604.113C1019.87 605.339 1020.79 606.443 1022.25 606.443C1023.55 606.443 1024.47 605.339 1024.47 604.113C1024.47 603.05 1023.55 601.946 1022.25 601.946C1020.79 601.946 1019.87 603.05 1019.87 604.113Z" fill="black"/>
<path d="M1086.51 604.113C1086.51 605.339 1087.43 606.443 1088.9 606.443C1090.19 606.443 1091.11 605.339 1091.11 604.113C1091.11 603.05 1090.19 601.946 1088.9 601.946C1087.43 601.946 1086.51 603.05 1086.51 604.113Z" fill="black"/>
<path d="M1153.16 604.113C1153.16 605.339 1154.08 606.443 1155.55 606.443C1156.84 606.443 1157.76 605.339 1157.76 604.113C1157.76 603.05 1156.84 601.946 1155.55 601.946C1154.08 601.946 1153.16 603.05 1153.16 604.113Z" fill="black"/>
<path d="M1219.81 604.113C1219.81 605.339 1220.73 606.443 1222.19 606.443C1223.49 606.443 1224.41 605.339 1224.41 604.113C1224.41 603.05 1223.49 601.946 1222.19 601.946C1220.73 601.946 1219.81 603.05 1219.81 604.113Z" fill="black"/>
<path d="M1286.46 604.113C1286.46 605.339 1287.38 606.443 1288.84 606.443C1290.14 606.443 1291.06 605.339 1291.06 604.113C1291.06 603.05 1290.14 601.946 1288.84 601.946C1287.38 601.946 1286.46 603.05 1286.46 604.113Z" fill="black"/>
<path d="M1353.1 604.113C1353.1 605.339 1354.02 606.443 1355.49 606.443C1356.78 606.443 1357.7 605.339 1357.7 604.113C1357.7 603.05 1356.78 601.946 1355.49 601.946C1354.02 601.946 1353.1 603.05 1353.1 604.113Z" fill="black"/>
<path d="M1419.75 604.113C1419.75 605.339 1420.67 606.443 1422.14 606.443C1423.43 606.443 1424.35 605.339 1424.35 604.113C1424.35 603.05 1423.43 601.946 1422.14 601.946C1420.67 601.946 1419.75 603.05 1419.75 604.113Z" fill="black"/>
<path d="M1486.4 604.113C1486.4 605.339 1487.32 606.443 1488.78 606.443C1490.08 606.443 1491 605.339 1491 604.113C1491 603.05 1490.08 601.946 1488.78 601.946C1487.32 601.946 1486.4 603.05 1486.4 604.113Z" fill="black"/>
<path d="M753.276 664.307C753.276 665.534 754.196 666.638 755.66 666.638C756.957 666.638 757.877 665.534 757.877 664.307C757.877 663.244 756.957 662.14 755.66 662.14C754.196 662.14 753.276 663.244 753.276 664.307Z" fill="black"/>
<path d="M819.924 664.307C819.924 665.534 820.844 666.638 822.308 666.638C823.604 666.638 824.524 665.534 824.524 664.307C824.524 663.244 823.604 662.14 822.308 662.14C820.844 662.14 819.924 663.244 819.924 664.307Z" fill="black"/>
<path d="M886.571 664.307C886.571 665.534 887.491 666.638 888.955 666.638C890.252 666.638 891.172 665.534 891.172 664.307C891.172 663.244 890.252 662.14 888.955 662.14C887.491 662.14 886.571 663.244 886.571 664.307Z" fill="black"/>
<path d="M953.219 664.307C953.219 665.534 954.139 666.638 955.603 666.638C956.899 666.638 957.82 665.534 957.82 664.307C957.82 663.244 956.899 662.14 955.603 662.14C954.139 662.14 953.219 663.244 953.219 664.307Z" fill="black"/>
<path d="M1019.87 664.307C1019.87 665.534 1020.79 666.638 1022.25 666.638C1023.55 666.638 1024.47 665.534 1024.47 664.307C1024.47 663.244 1023.55 662.14 1022.25 662.14C1020.79 662.14 1019.87 663.244 1019.87 664.307Z" fill="black"/>
<path d="M1086.51 664.307C1086.51 665.534 1087.43 666.638 1088.9 666.638C1090.19 666.638 1091.11 665.534 1091.11 664.307C1091.11 663.244 1090.19 662.14 1088.9 662.14C1087.43 662.14 1086.51 663.244 1086.51 664.307Z" fill="black"/>
<path d="M1153.16 664.307C1153.16 665.534 1154.08 666.638 1155.55 666.638C1156.84 666.638 1157.76 665.534 1157.76 664.307C1157.76 663.244 1156.84 662.14 1155.55 662.14C1154.08 662.14 1153.16 663.244 1153.16 664.307Z" fill="black"/>
<path d="M1219.81 664.307C1219.81 665.534 1220.73 666.638 1222.19 666.638C1223.49 666.638 1224.41 665.534 1224.41 664.307C1224.41 663.244 1223.49 662.14 1222.19 662.14C1220.73 662.14 1219.81 663.244 1219.81 664.307Z" fill="black"/>
<path d="M1286.46 664.307C1286.46 665.534 1287.38 666.638 1288.84 666.638C1290.14 666.638 1291.06 665.534 1291.06 664.307C1291.06 663.244 1290.14 662.14 1288.84 662.14C1287.38 662.14 1286.46 663.244 1286.46 664.307Z" fill="black"/>
<path d="M1353.1 664.307C1353.1 665.534 1354.02 666.638 1355.49 666.638C1356.78 666.638 1357.7 665.534 1357.7 664.307C1357.7 663.244 1356.78 662.14 1355.49 662.14C1354.02 662.14 1353.1 663.244 1353.1 664.307Z" fill="black"/>
<path d="M1419.75 664.307C1419.75 665.534 1420.67 666.638 1422.14 666.638C1423.43 666.638 1424.35 665.534 1424.35 664.307C1424.35 663.244 1423.43 662.14 1422.14 662.14C1420.67 662.14 1419.75 663.244 1419.75 664.307Z" fill="black"/>
<path d="M1486.4 664.307C1486.4 665.534 1487.32 666.638 1488.78 666.638C1490.08 666.638 1491 665.534 1491 664.307C1491 663.244 1490.08 662.14 1488.78 662.14C1487.32 662.14 1486.4 663.244 1486.4 664.307Z" fill="black"/>
<path d="M753.276 724.502C753.276 725.729 754.196 726.833 755.66 726.833C756.957 726.833 757.877 725.729 757.877 724.502C757.877 723.439 756.957 722.335 755.66 722.335C754.196 722.335 753.276 723.439 753.276 724.502Z" fill="black"/>
<path d="M819.924 724.502C819.924 725.729 820.844 726.833 822.308 726.833C823.604 726.833 824.524 725.729 824.524 724.502C824.524 723.439 823.604 722.335 822.308 722.335C820.844 722.335 819.924 723.439 819.924 724.502Z" fill="black"/>
<path d="M886.571 724.502C886.571 725.729 887.491 726.833 888.955 726.833C890.252 726.833 891.172 725.729 891.172 724.502C891.172 723.439 890.252 722.335 888.955 722.335C887.491 722.335 886.571 723.439 886.571 724.502Z" fill="black"/>
<path d="M953.219 724.502C953.219 725.729 954.139 726.833 955.603 726.833C956.899 726.833 957.82 725.729 957.82 724.502C957.82 723.439 956.899 722.335 955.603 722.335C954.139 722.335 953.219 723.439 953.219 724.502Z" fill="black"/>
<path d="M1019.87 724.502C1019.87 725.729 1020.79 726.833 1022.25 726.833C1023.55 726.833 1024.47 725.729 1024.47 724.502C1024.47 723.439 1023.55 722.335 1022.25 722.335C1020.79 722.335 1019.87 723.439 1019.87 724.502Z" fill="black"/>
<path d="M1086.51 724.502C1086.51 725.729 1087.43 726.833 1088.9 726.833C1090.19 726.833 1091.11 725.729 1091.11 724.502C1091.11 723.439 1090.19 722.335 1088.9 722.335C1087.43 722.335 1086.51 723.439 1086.51 724.502Z" fill="black"/>
<path d="M1153.16 724.502C1153.16 725.729 1154.08 726.833 1155.55 726.833C1156.84 726.833 1157.76 725.729 1157.76 724.502C1157.76 723.439 1156.84 722.335 1155.55 722.335C1154.08 722.335 1153.16 723.439 1153.16 724.502Z" fill="black"/>
<path d="M1219.81 724.502C1219.81 725.729 1220.73 726.833 1222.19 726.833C1223.49 726.833 1224.41 725.729 1224.41 724.502C1224.41 723.439 1223.49 722.335 1222.19 722.335C1220.73 722.335 1219.81 723.439 1219.81 724.502Z" fill="black"/>
<path d="M1286.46 724.502C1286.46 725.729 1287.38 726.833 1288.84 726.833C1290.14 726.833 1291.06 725.729 1291.06 724.502C1291.06 723.439 1290.14 722.335 1288.84 722.335C1287.38 722.335 1286.46 723.439 1286.46 724.502Z" fill="black"/>
<path d="M1353.1 724.502C1353.1 725.729 1354.02 726.833 1355.49 726.833C1356.78 726.833 1357.7 725.729 1357.7 724.502C1357.7 723.439 1356.78 722.335 1355.49 722.335C1354.02 722.335 1353.1 723.439 1353.1 724.502Z" fill="black"/>
<path d="M1419.75 724.502C1419.75 725.729 1420.67 726.833 1422.14 726.833C1423.43 726.833 1424.35 725.729 1424.35 724.502C1424.35 723.439 1423.43 722.335 1422.14 722.335C1420.67 722.335 1419.75 723.439 1419.75 724.502Z" fill="black"/>
<path d="M1486.4 724.502C1486.4 725.729 1487.32 726.833 1488.78 726.833C1490.08 726.833 1491 725.729 1491 724.502C1491 723.439 1490.08 722.335 1488.78 722.335C1487.32 722.335 1486.4 723.439 1486.4 724.502Z" fill="black"/>
<path d="M753.276 784.697C753.276 785.923 754.196 787.027 755.66 787.027C756.957 787.027 757.877 785.923 757.877 784.697C757.877 783.634 756.957 782.53 755.66 782.53C754.196 782.53 753.276 783.634 753.276 784.697Z" fill="black"/>
<path d="M819.924 784.697C819.924 785.923 820.844 787.027 822.308 787.027C823.604 787.027 824.524 785.923 824.524 784.697C824.524 783.634 823.604 782.53 822.308 782.53C820.844 782.53 819.924 783.634 819.924 784.697Z" fill="black"/>
<path d="M886.571 784.697C886.571 785.923 887.491 787.027 888.955 787.027C890.252 787.027 891.172 785.923 891.172 784.697C891.172 783.634 890.252 782.53 888.955 782.53C887.491 782.53 886.571 783.634 886.571 784.697Z" fill="black"/>
<path d="M953.219 784.697C953.219 785.923 954.139 787.027 955.603 787.027C956.899 787.027 957.82 785.923 957.82 784.697C957.82 783.634 956.899 782.53 955.603 782.53C954.139 782.53 953.219 783.634 953.219 784.697Z" fill="black"/>
<path d="M1019.87 784.697C1019.87 785.923 1020.79 787.027 1022.25 787.027C1023.55 787.027 1024.47 785.923 1024.47 784.697C1024.47 783.634 1023.55 782.53 1022.25 782.53C1020.79 782.53 1019.87 783.634 1019.87 784.697Z" fill="black"/>
<path d="M1086.51 784.697C1086.51 785.923 1087.43 787.027 1088.9 787.027C1090.19 787.027 1091.11 785.923 1091.11 784.697C1091.11 783.634 1090.19 782.53 1088.9 782.53C1087.43 782.53 1086.51 783.634 1086.51 784.697Z" fill="black"/>
<path d="M1153.16 784.697C1153.16 785.923 1154.08 787.027 1155.55 787.027C1156.84 787.027 1157.76 785.923 1157.76 784.697C1157.76 783.634 1156.84 782.53 1155.55 782.53C1154.08 782.53 1153.16 783.634 1153.16 784.697Z" fill="black"/>
<path d="M1219.81 784.697C1219.81 785.923 1220.73 787.027 1222.19 787.027C1223.49 787.027 1224.41 785.923 1224.41 784.697C1224.41 783.634 1223.49 782.53 1222.19 782.53C1220.73 782.53 1219.81 783.634 1219.81 784.697Z" fill="black"/>
<path d="M1286.46 784.697C1286.46 785.923 1287.38 787.027 1288.84 787.027C1290.14 787.027 1291.06 785.923 1291.06 784.697C1291.06 783.634 1290.14 782.53 1288.84 782.53C1287.38 782.53 1286.46 783.634 1286.46 784.697Z" fill="black"/>
<path d="M1353.1 784.697C1353.1 785.923 1354.02 787.027 1355.49 787.027C1356.78 787.027 1357.7 785.923 1357.7 784.697C1357.7 783.634 1356.78 782.53 1355.49 782.53C1354.02 782.53 1353.1 783.634 1353.1 784.697Z" fill="black"/>
<path d="M1419.75 784.697C1419.75 785.923 1420.67 787.027 1422.14 787.027C1423.43 787.027 1424.35 785.923 1424.35 784.697C1424.35 783.634 1423.43 782.53 1422.14 782.53C1420.67 782.53 1419.75 783.634 1419.75 784.697Z" fill="black"/>
<path d="M1486.4 784.697C1486.4 785.923 1487.32 787.027 1488.78 787.027C1490.08 787.027 1491 785.923 1491 784.697C1491 783.634 1490.08 782.53 1488.78 782.53C1487.32 782.53 1486.4 783.634 1486.4 784.697Z" fill="black"/>
<path d="M753.276 844.891C753.276 846.118 754.196 847.222 755.66 847.222C756.957 847.222 757.877 846.118 757.877 844.891C757.877 843.828 756.957 842.724 755.66 842.724C754.196 842.724 753.276 843.828 753.276 844.891Z" fill="black"/>
<path d="M819.924 844.891C819.924 846.118 820.844 847.222 822.308 847.222C823.604 847.222 824.524 846.118 824.524 844.891C824.524 843.828 823.604 842.724 822.308 842.724C820.844 842.724 819.924 843.828 819.924 844.891Z" fill="black"/>
<path d="M886.571 844.891C886.571 846.118 887.491 847.222 888.955 847.222C890.252 847.222 891.172 846.118 891.172 844.891C891.172 843.828 890.252 842.724 888.955 842.724C887.491 842.724 886.571 843.828 886.571 844.891Z" fill="black"/>
<path d="M953.219 844.891C953.219 846.118 954.139 847.222 955.603 847.222C956.899 847.222 957.82 846.118 957.82 844.891C957.82 843.828 956.899 842.724 955.603 842.724C954.139 842.724 953.219 843.828 953.219 844.891Z" fill="black"/>
<path d="M1019.87 844.891C1019.87 846.118 1020.79 847.222 1022.25 847.222C1023.55 847.222 1024.47 846.118 1024.47 844.891C1024.47 843.828 1023.55 842.724 1022.25 842.724C1020.79 842.724 1019.87 843.828 1019.87 844.891Z" fill="black"/>
<path d="M1086.51 844.891C1086.51 846.118 1087.43 847.222 1088.9 847.222C1090.19 847.222 1091.11 846.118 1091.11 844.891C1091.11 843.828 1090.19 842.724 1088.9 842.724C1087.43 842.724 1086.51 843.828 1086.51 844.891Z" fill="black"/>
<path d="M1153.16 844.891C1153.16 846.118 1154.08 847.222 1155.55 847.222C1156.84 847.222 1157.76 846.118 1157.76 844.891C1157.76 843.828 1156.84 842.724 1155.55 842.724C1154.08 842.724 1153.16 843.828 1153.16 844.891Z" fill="black"/>
<path d="M1219.81 844.891C1219.81 846.118 1220.73 847.222 1222.19 847.222C1223.49 847.222 1224.41 846.118 1224.41 844.891C1224.41 843.828 1223.49 842.724 1222.19 842.724C1220.73 842.724 1219.81 843.828 1219.81 844.891Z" fill="black"/>
<path d="M1286.46 844.891C1286.46 846.118 1287.38 847.222 1288.84 847.222C1290.14 847.222 1291.06 846.118 1291.06 844.891C1291.06 843.828 1290.14 842.724 1288.84 842.724C1287.38 842.724 1286.46 843.828 1286.46 844.891Z" fill="black"/>
<path d="M1353.1 844.891C1353.1 846.118 1354.02 847.222 1355.49 847.222C1356.78 847.222 1357.7 846.118 1357.7 844.891C1357.7 843.828 1356.78 842.724 1355.49 842.724C1354.02 842.724 1353.1 843.828 1353.1 844.891Z" fill="black"/>
<path d="M1419.75 844.891C1419.75 846.118 1420.67 847.222 1422.14 847.222C1423.43 847.222 1424.35 846.118 1424.35 844.891C1424.35 843.828 1423.43 842.724 1422.14 842.724C1420.67 842.724 1419.75 843.828 1419.75 844.891Z" fill="black"/>
<path d="M1486.4 844.891C1486.4 846.118 1487.32 847.222 1488.78 847.222C1490.08 847.222 1491 846.118 1491 844.891C1491 843.828 1490.08 842.724 1488.78 842.724C1487.32 842.724 1486.4 843.828 1486.4 844.891Z" fill="black"/>
<path d="M753.276 905.086C753.276 906.312 754.196 907.416 755.66 907.416C756.957 907.416 757.877 906.312 757.877 905.086C757.877 904.023 756.957 902.919 755.66 902.919C754.196 902.919 753.276 904.023 753.276 905.086Z" fill="black"/>
<path d="M819.924 905.086C819.924 906.312 820.844 907.416 822.308 907.416C823.604 907.416 824.524 906.312 824.524 905.086C824.524 904.023 823.604 902.919 822.308 902.919C820.844 902.919 819.924 904.023 819.924 905.086Z" fill="black"/>
<path d="M886.571 905.086C886.571 906.312 887.491 907.416 888.955 907.416C890.252 907.416 891.172 906.312 891.172 905.086C891.172 904.023 890.252 902.919 888.955 902.919C887.491 902.919 886.571 904.023 886.571 905.086Z" fill="black"/>
<path d="M953.219 905.086C953.219 906.312 954.139 907.416 955.603 907.416C956.899 907.416 957.82 906.312 957.82 905.086C957.82 904.023 956.899 902.919 955.603 902.919C954.139 902.919 953.219 904.023 953.219 905.086Z" fill="black"/>
<path d="M1019.87 905.086C1019.87 906.312 1020.79 907.416 1022.25 907.416C1023.55 907.416 1024.47 906.312 1024.47 905.086C1024.47 904.023 1023.55 902.919 1022.25 902.919C1020.79 902.919 1019.87 904.023 1019.87 905.086Z" fill="black"/>
<path d="M1086.51 905.086C1086.51 906.312 1087.43 907.416 1088.9 907.416C1090.19 907.416 1091.11 906.312 1091.11 905.086C1091.11 904.023 1090.19 902.919 1088.9 902.919C1087.43 902.919 1086.51 904.023 1086.51 905.086Z" fill="black"/>
<path d="M1153.16 905.086C1153.16 906.312 1154.08 907.416 1155.55 907.416C1156.84 907.416 1157.76 906.312 1157.76 905.086C1157.76 904.023 1156.84 902.919 1155.55 902.919C1154.08 902.919 1153.16 904.023 1153.16 905.086Z" fill="black"/>
<path d="M1219.81 905.086C1219.81 906.312 1220.73 907.416 1222.19 907.416C1223.49 907.416 1224.41 906.312 1224.41 905.086C1224.41 904.023 1223.49 902.919 1222.19 902.919C1220.73 902.919 1219.81 904.023 1219.81 905.086Z" fill="black"/>
<path d="M1286.46 905.086C1286.46 906.312 1287.38 907.416 1288.84 907.416C1290.14 907.416 1291.06 906.312 1291.06 905.086C1291.06 904.023 1290.14 902.919 1288.84 902.919C1287.38 902.919 1286.46 904.023 1286.46 905.086Z" fill="black"/>
<path d="M1353.1 905.086C1353.1 906.312 1354.02 907.416 1355.49 907.416C1356.78 907.416 1357.7 906.312 1357.7 905.086C1357.7 904.023 1356.78 902.919 1355.49 902.919C1354.02 902.919 1353.1 904.023 1353.1 905.086Z" fill="black"/>
<path d="M1419.75 905.086C1419.75 906.312 1420.67 907.416 1422.14 907.416C1423.43 907.416 1424.35 906.312 1424.35 905.086C1424.35 904.023 1423.43 902.919 1422.14 902.919C1420.67 902.919 1419.75 904.023 1419.75 905.086Z" fill="black"/>
<path d="M1486.4 905.086C1486.4 906.312 1487.32 907.416 1488.78 907.416C1490.08 907.416 1491 906.312 1491 905.086C1491 904.023 1490.08 902.919 1488.78 902.919C1487.32 902.919 1486.4 904.023 1486.4 905.086Z" fill="black"/>
<path d="M753.276 965.28C753.276 966.507 754.196 967.611 755.66 967.611C756.957 967.611 757.877 966.507 757.877 965.28C757.877 964.217 756.957 963.113 755.66 963.113C754.196 963.113 753.276 964.217 753.276 965.28Z" fill="black"/>
<path d="M819.924 965.28C819.924 966.507 820.844 967.611 822.308 967.611C823.604 967.611 824.524 966.507 824.524 965.28C824.524 964.217 823.604 963.113 822.308 963.113C820.844 963.113 819.924 964.217 819.924 965.28Z" fill="black"/>
<path d="M886.571 965.28C886.571 966.507 887.491 967.611 888.955 967.611C890.252 967.611 891.172 966.507 891.172 965.28C891.172 964.217 890.252 963.113 888.955 963.113C887.491 963.113 886.571 964.217 886.571 965.28Z" fill="black"/>
<path d="M953.219 965.28C953.219 966.507 954.139 967.611 955.603 967.611C956.899 967.611 957.82 966.507 957.82 965.28C957.82 964.217 956.899 963.113 955.603 963.113C954.139 963.113 953.219 964.217 953.219 965.28Z" fill="black"/>
<path d="M1019.87 965.28C1019.87 966.507 1020.79 967.611 1022.25 967.611C1023.55 967.611 1024.47 966.507 1024.47 965.28C1024.47 964.217 1023.55 963.113 1022.25 963.113C1020.79 963.113 1019.87 964.217 1019.87 965.28Z" fill="black"/>
<path d="M1086.51 965.28C1086.51 966.507 1087.43 967.611 1088.9 967.611C1090.19 967.611 1091.11 966.507 1091.11 965.28C1091.11 964.217 1090.19 963.113 1088.9 963.113C1087.43 963.113 1086.51 964.217 1086.51 965.28Z" fill="black"/>
<path d="M1153.16 965.28C1153.16 966.507 1154.08 967.611 1155.55 967.611C1156.84 967.611 1157.76 966.507 1157.76 965.28C1157.76 964.217 1156.84 963.113 1155.55 963.113C1154.08 963.113 1153.16 964.217 1153.16 965.28Z" fill="black"/>
<path d="M1219.81 965.28C1219.81 966.507 1220.73 967.611 1222.19 967.611C1223.49 967.611 1224.41 966.507 1224.41 965.28C1224.41 964.217 1223.49 963.113 1222.19 963.113C1220.73 963.113 1219.81 964.217 1219.81 965.28Z" fill="black"/>
<path d="M1286.46 965.28C1286.46 966.507 1287.38 967.611 1288.84 967.611C1290.14 967.611 1291.06 966.507 1291.06 965.28C1291.06 964.217 1290.14 963.113 1288.84 963.113C1287.38 963.113 1286.46 964.217 1286.46 965.28Z" fill="black"/>
<path d="M1353.1 965.28C1353.1 966.507 1354.02 967.611 1355.49 967.611C1356.78 967.611 1357.7 966.507 1357.7 965.28C1357.7 964.217 1356.78 963.113 1355.49 963.113C1354.02 963.113 1353.1 964.217 1353.1 965.28Z" fill="black"/>
<path d="M1419.75 965.28C1419.75 966.507 1420.67 967.611 1422.14 967.611C1423.43 967.611 1424.35 966.507 1424.35 965.28C1424.35 964.217 1423.43 963.113 1422.14 963.113C1420.67 963.113 1419.75 964.217 1419.75 965.28Z" fill="black"/>
<path d="M1486.4 965.28C1486.4 966.507 1487.32 967.611 1488.78 967.611C1490.08 967.611 1491 966.507 1491 965.28C1491 964.217 1490.08 963.113 1488.78 963.113C1487.32 963.113 1486.4 964.217 1486.4 965.28Z" fill="black"/>
<path d="M753.276 1025.47C753.276 1026.7 754.196 1027.81 755.66 1027.81C756.957 1027.81 757.877 1026.7 757.877 1025.47C757.877 1024.41 756.957 1023.31 755.66 1023.31C754.196 1023.31 753.276 1024.41 753.276 1025.47Z" fill="black"/>
<path d="M819.924 1025.47C819.924 1026.7 820.844 1027.81 822.308 1027.81C823.604 1027.81 824.524 1026.7 824.524 1025.47C824.524 1024.41 823.604 1023.31 822.308 1023.31C820.844 1023.31 819.924 1024.41 819.924 1025.47Z" fill="black"/>
<path d="M886.571 1025.47C886.571 1026.7 887.491 1027.81 888.955 1027.81C890.252 1027.81 891.172 1026.7 891.172 1025.47C891.172 1024.41 890.252 1023.31 888.955 1023.31C887.491 1023.31 886.571 1024.41 886.571 1025.47Z" fill="black"/>
<path d="M953.219 1025.47C953.219 1026.7 954.139 1027.81 955.603 1027.81C956.899 1027.81 957.82 1026.7 957.82 1025.47C957.82 1024.41 956.899 1023.31 955.603 1023.31C954.139 1023.31 953.219 1024.41 953.219 1025.47Z" fill="black"/>
<path d="M1019.87 1025.47C1019.87 1026.7 1020.79 1027.81 1022.25 1027.81C1023.55 1027.81 1024.47 1026.7 1024.47 1025.47C1024.47 1024.41 1023.55 1023.31 1022.25 1023.31C1020.79 1023.31 1019.87 1024.41 1019.87 1025.47Z" fill="black"/>
<path d="M1086.51 1025.47C1086.51 1026.7 1087.43 1027.81 1088.9 1027.81C1090.19 1027.81 1091.11 1026.7 1091.11 1025.47C1091.11 1024.41 1090.19 1023.31 1088.9 1023.31C1087.43 1023.31 1086.51 1024.41 1086.51 1025.47Z" fill="black"/>
<path d="M1153.16 1025.47C1153.16 1026.7 1154.08 1027.81 1155.55 1027.81C1156.84 1027.81 1157.76 1026.7 1157.76 1025.47C1157.76 1024.41 1156.84 1023.31 1155.55 1023.31C1154.08 1023.31 1153.16 1024.41 1153.16 1025.47Z" fill="black"/>
<path d="M1219.81 1025.47C1219.81 1026.7 1220.73 1027.81 1222.19 1027.81C1223.49 1027.81 1224.41 1026.7 1224.41 1025.47C1224.41 1024.41 1223.49 1023.31 1222.19 1023.31C1220.73 1023.31 1219.81 1024.41 1219.81 1025.47Z" fill="black"/>
<path d="M1286.46 1025.47C1286.46 1026.7 1287.38 1027.81 1288.84 1027.81C1290.14 1027.81 1291.06 1026.7 1291.06 1025.47C1291.06 1024.41 1290.14 1023.31 1288.84 1023.31C1287.38 1023.31 1286.46 1024.41 1286.46 1025.47Z" fill="black"/>
<path d="M1353.1 1025.47C1353.1 1026.7 1354.02 1027.81 1355.49 1027.81C1356.78 1027.81 1357.7 1026.7 1357.7 1025.47C1357.7 1024.41 1356.78 1023.31 1355.49 1023.31C1354.02 1023.31 1353.1 1024.41 1353.1 1025.47Z" fill="black"/>
<path d="M1486.4 1025.47C1486.4 1026.7 1487.32 1027.81 1488.78 1027.81C1490.08 1027.81 1491 1026.7 1491 1025.47C1491 1024.41 1490.08 1023.31 1488.78 1023.31C1487.32 1023.31 1486.4 1024.41 1486.4 1025.47Z" fill="black"/>
<path d="M-50 2.16701C-50 3.39361 -49.0798 4.49756 -47.616 4.49756C-46.3194 4.49756 -45.3992 3.39361 -45.3992 2.16701C-45.3992 1.10395 -46.3194 0 -47.616 0C-49.0798 0 -50 1.10395 -50 2.16701Z" fill="black"/>
<path d="M16.6475 2.16701C16.6475 3.39361 17.5677 4.49756 19.0316 4.49756C20.3282 4.49756 21.2483 3.39361 21.2483 2.16701C21.2483 1.10395 20.3282 0 19.0316 0C17.5677 0 16.6475 1.10395 16.6475 2.16701Z" fill="black"/>
<path d="M83.2951 2.16701C83.2951 3.39361 84.2153 4.49756 85.6791 4.49756C86.9757 4.49756 87.8959 3.39361 87.8959 2.16701C87.8959 1.10395 86.9757 0 85.6791 0C84.2153 0 83.2951 1.10395 83.2951 2.16701Z" fill="black"/>
<path d="M149.943 2.16701C149.943 3.39361 150.863 4.49756 152.327 4.49756C153.623 4.49756 154.543 3.39361 154.543 2.16701C154.543 1.10395 153.623 0 152.327 0C150.863 0 149.943 1.10395 149.943 2.16701Z" fill="black"/>
<path d="M216.59 2.16701C216.59 3.39361 217.51 4.49756 218.974 4.49756C220.271 4.49756 221.191 3.39361 221.191 2.16701C221.191 1.10395 220.271 0 218.974 0C217.51 0 216.59 1.10395 216.59 2.16701Z" fill="black"/>
<path d="M283.238 2.16701C283.238 3.39361 284.158 4.49756 285.622 4.49756C286.918 4.49756 287.839 3.39361 287.839 2.16701C287.839 1.10395 286.918 0 285.622 0C284.158 0 283.238 1.10395 283.238 2.16701Z" fill="black"/>
<path d="M349.885 2.16701C349.885 3.39361 350.805 4.49756 352.269 4.49756C353.566 4.49756 354.486 3.39361 354.486 2.16701C354.486 1.10395 353.566 0 352.269 0C350.805 0 349.885 1.10395 349.885 2.16701Z" fill="black"/>
<path d="M416.533 2.16701C416.533 3.39361 417.453 4.49756 418.917 4.49756C420.213 4.49756 421.134 3.39361 421.134 2.16701C421.134 1.10395 420.213 0 418.917 0C417.453 0 416.533 1.10395 416.533 2.16701Z" fill="black"/>
<path d="M483.18 2.16701C483.18 3.39361 484.101 4.49756 485.564 4.49756C486.861 4.49756 487.781 3.39361 487.781 2.16701C487.781 1.10395 486.861 0 485.564 0C484.101 0 483.18 1.10395 483.18 2.16701Z" fill="black"/>
<path d="M549.828 2.16701C549.828 3.39361 550.748 4.49756 552.212 4.49756C553.509 4.49756 554.429 3.39361 554.429 2.16701C554.429 1.10395 553.509 0 552.212 0C550.748 0 549.828 1.10395 549.828 2.16701Z" fill="black"/>
<path d="M616.476 2.16701C616.476 3.39361 617.396 4.49756 618.86 4.49756C620.156 4.49756 621.076 3.39361 621.076 2.16701C621.076 1.10395 620.156 0 618.86 0C617.396 0 616.476 1.10395 616.476 2.16701Z" fill="black"/>
<path d="M683.123 2.16701C683.123 3.39361 684.043 4.49756 685.507 4.49756C686.804 4.49756 687.724 3.39361 687.724 2.16701C687.724 1.10395 686.804 0 685.507 0C684.043 0 683.123 1.10395 683.123 2.16701Z" fill="black"/>
<path d="M-50 62.3616C-50 63.5882 -49.0798 64.6921 -47.616 64.6921C-46.3194 64.6921 -45.3992 63.5882 -45.3992 62.3616C-45.3992 61.2985 -46.3194 60.1946 -47.616 60.1946C-49.0798 60.1946 -50 61.2985 -50 62.3616Z" fill="black"/>
<path d="M16.6475 62.3616C16.6475 63.5882 17.5677 64.6921 19.0316 64.6921C20.3282 64.6921 21.2483 63.5882 21.2483 62.3616C21.2483 61.2985 20.3282 60.1946 19.0316 60.1946C17.5677 60.1946 16.6475 61.2985 16.6475 62.3616Z" fill="black"/>
<path d="M83.2951 62.3616C83.2951 63.5882 84.2153 64.6921 85.6791 64.6921C86.9757 64.6921 87.8959 63.5882 87.8959 62.3616C87.8959 61.2985 86.9757 60.1946 85.6791 60.1946C84.2153 60.1946 83.2951 61.2985 83.2951 62.3616Z" fill="black"/>
<path d="M149.943 62.3616C149.943 63.5882 150.863 64.6921 152.327 64.6921C153.623 64.6921 154.543 63.5882 154.543 62.3616C154.543 61.2985 153.623 60.1946 152.327 60.1946C150.863 60.1946 149.943 61.2985 149.943 62.3616Z" fill="black"/>
<path d="M216.59 62.3616C216.59 63.5882 217.51 64.6921 218.974 64.6921C220.271 64.6921 221.191 63.5882 221.191 62.3616C221.191 61.2985 220.271 60.1946 218.974 60.1946C217.51 60.1946 216.59 61.2985 216.59 62.3616Z" fill="black"/>
<path d="M283.238 62.3616C283.238 63.5882 284.158 64.6921 285.622 64.6921C286.918 64.6921 287.839 63.5882 287.839 62.3616C287.839 61.2985 286.918 60.1946 285.622 60.1946C284.158 60.1946 283.238 61.2985 283.238 62.3616Z" fill="black"/>
<path d="M349.885 62.3616C349.885 63.5882 350.805 64.6921 352.269 64.6921C353.566 64.6921 354.486 63.5882 354.486 62.3616C354.486 61.2985 353.566 60.1946 352.269 60.1946C350.805 60.1946 349.885 61.2985 349.885 62.3616Z" fill="black"/>
<path d="M416.533 62.3616C416.533 63.5882 417.453 64.6921 418.917 64.6921C420.213 64.6921 421.134 63.5882 421.134 62.3616C421.134 61.2985 420.213 60.1946 418.917 60.1946C417.453 60.1946 416.533 61.2985 416.533 62.3616Z" fill="black"/>
<path d="M483.18 62.3616C483.18 63.5882 484.101 64.6921 485.564 64.6921C486.861 64.6921 487.781 63.5882 487.781 62.3616C487.781 61.2985 486.861 60.1946 485.564 60.1946C484.101 60.1946 483.18 61.2985 483.18 62.3616Z" fill="black"/>
<path d="M549.828 62.3616C549.828 63.5882 550.748 64.6921 552.212 64.6921C553.509 64.6921 554.429 63.5882 554.429 62.3616C554.429 61.2985 553.509 60.1946 552.212 60.1946C550.748 60.1946 549.828 61.2985 549.828 62.3616Z" fill="black"/>
<path d="M616.476 62.3616C616.476 63.5882 617.396 64.6921 618.86 64.6921C620.156 64.6921 621.076 63.5882 621.076 62.3616C621.076 61.2985 620.156 60.1946 618.86 60.1946C617.396 60.1946 616.476 61.2985 616.476 62.3616Z" fill="black"/>
<path d="M683.123 62.3616C683.123 63.5882 684.043 64.6921 685.507 64.6921C686.804 64.6921 687.724 63.5882 687.724 62.3616C687.724 61.2985 686.804 60.1946 685.507 60.1946C684.043 60.1946 683.123 61.2985 683.123 62.3616Z" fill="black"/>
<path d="M-50 122.556C-50 123.783 -49.0798 124.887 -47.616 124.887C-46.3194 124.887 -45.3992 123.783 -45.3992 122.556C-45.3992 121.493 -46.3194 120.389 -47.616 120.389C-49.0798 120.389 -50 121.493 -50 122.556Z" fill="black"/>
<path d="M16.6475 122.556C16.6475 123.783 17.5677 124.887 19.0316 124.887C20.3282 124.887 21.2483 123.783 21.2483 122.556C21.2483 121.493 20.3282 120.389 19.0316 120.389C17.5677 120.389 16.6475 121.493 16.6475 122.556Z" fill="black"/>
<path d="M83.2951 122.556C83.2951 123.783 84.2153 124.887 85.6791 124.887C86.9757 124.887 87.8959 123.783 87.8959 122.556C87.8959 121.493 86.9757 120.389 85.6791 120.389C84.2153 120.389 83.2951 121.493 83.2951 122.556Z" fill="black"/>
<path d="M149.943 122.556C149.943 123.783 150.863 124.887 152.327 124.887C153.623 124.887 154.543 123.783 154.543 122.556C154.543 121.493 153.623 120.389 152.327 120.389C150.863 120.389 149.943 121.493 149.943 122.556Z" fill="black"/>
<path d="M216.59 122.556C216.59 123.783 217.51 124.887 218.974 124.887C220.271 124.887 221.191 123.783 221.191 122.556C221.191 121.493 220.271 120.389 218.974 120.389C217.51 120.389 216.59 121.493 216.59 122.556Z" fill="black"/>
<path d="M283.238 122.556C283.238 123.783 284.158 124.887 285.622 124.887C286.918 124.887 287.839 123.783 287.839 122.556C287.839 121.493 286.918 120.389 285.622 120.389C284.158 120.389 283.238 121.493 283.238 122.556Z" fill="black"/>
<path d="M349.885 122.556C349.885 123.783 350.805 124.887 352.269 124.887C353.566 124.887 354.486 123.783 354.486 122.556C354.486 121.493 353.566 120.389 352.269 120.389C350.805 120.389 349.885 121.493 349.885 122.556Z" fill="black"/>
<path d="M416.533 122.556C416.533 123.783 417.453 124.887 418.917 124.887C420.213 124.887 421.134 123.783 421.134 122.556C421.134 121.493 420.213 120.389 418.917 120.389C417.453 120.389 416.533 121.493 416.533 122.556Z" fill="black"/>
<path d="M483.18 122.556C483.18 123.783 484.101 124.887 485.564 124.887C486.861 124.887 487.781 123.783 487.781 122.556C487.781 121.493 486.861 120.389 485.564 120.389C484.101 120.389 483.18 121.493 483.18 122.556Z" fill="black"/>
<path d="M549.828 122.556C549.828 123.783 550.748 124.887 552.212 124.887C553.509 124.887 554.429 123.783 554.429 122.556C554.429 121.493 553.509 120.389 552.212 120.389C550.748 120.389 549.828 121.493 549.828 122.556Z" fill="black"/>
<path d="M616.476 122.556C616.476 123.783 617.396 124.887 618.86 124.887C620.156 124.887 621.076 123.783 621.076 122.556C621.076 121.493 620.156 120.389 618.86 120.389C617.396 120.389 616.476 121.493 616.476 122.556Z" fill="black"/>
<path d="M683.123 122.556C683.123 123.783 684.043 124.887 685.507 124.887C686.804 124.887 687.724 123.783 687.724 122.556C687.724 121.493 686.804 120.389 685.507 120.389C684.043 120.389 683.123 121.493 683.123 122.556Z" fill="black"/>
<path d="M-50 182.751C-50 183.977 -49.0798 185.081 -47.616 185.081C-46.3194 185.081 -45.3992 183.977 -45.3992 182.751C-45.3992 181.688 -46.3194 180.584 -47.616 180.584C-49.0798 180.584 -50 181.688 -50 182.751Z" fill="black"/>
<path d="M16.6475 182.751C16.6475 183.977 17.5677 185.081 19.0316 185.081C20.3282 185.081 21.2483 183.977 21.2483 182.751C21.2483 181.688 20.3282 180.584 19.0316 180.584C17.5677 180.584 16.6475 181.688 16.6475 182.751Z" fill="black"/>
<path d="M83.2951 182.751C83.2951 183.977 84.2153 185.081 85.6791 185.081C86.9757 185.081 87.8959 183.977 87.8959 182.751C87.8959 181.688 86.9757 180.584 85.6791 180.584C84.2153 180.584 83.2951 181.688 83.2951 182.751Z" fill="black"/>
<path d="M149.943 182.751C149.943 183.977 150.863 185.081 152.327 185.081C153.623 185.081 154.543 183.977 154.543 182.751C154.543 181.688 153.623 180.584 152.327 180.584C150.863 180.584 149.943 181.688 149.943 182.751Z" fill="black"/>
<path d="M216.59 182.751C216.59 183.977 217.51 185.081 218.974 185.081C220.271 185.081 221.191 183.977 221.191 182.751C221.191 181.688 220.271 180.584 218.974 180.584C217.51 180.584 216.59 181.688 216.59 182.751Z" fill="black"/>
<path d="M283.238 182.751C283.238 183.977 284.158 185.081 285.622 185.081C286.918 185.081 287.839 183.977 287.839 182.751C287.839 181.688 286.918 180.584 285.622 180.584C284.158 180.584 283.238 181.688 283.238 182.751Z" fill="black"/>
<path d="M349.885 182.751C349.885 183.977 350.805 185.081 352.269 185.081C353.566 185.081 354.486 183.977 354.486 182.751C354.486 181.688 353.566 180.584 352.269 180.584C350.805 180.584 349.885 181.688 349.885 182.751Z" fill="black"/>
<path d="M416.533 182.751C416.533 183.977 417.453 185.081 418.917 185.081C420.213 185.081 421.134 183.977 421.134 182.751C421.134 181.688 420.213 180.584 418.917 180.584C417.453 180.584 416.533 181.688 416.533 182.751Z" fill="black"/>
<path d="M483.18 182.751C483.18 183.977 484.101 185.081 485.564 185.081C486.861 185.081 487.781 183.977 487.781 182.751C487.781 181.688 486.861 180.584 485.564 180.584C484.101 180.584 483.18 181.688 483.18 182.751Z" fill="black"/>
<path d="M549.828 182.751C549.828 183.977 550.748 185.081 552.212 185.081C553.509 185.081 554.429 183.977 554.429 182.751C554.429 181.688 553.509 180.584 552.212 180.584C550.748 180.584 549.828 181.688 549.828 182.751Z" fill="black"/>
<path d="M616.476 182.751C616.476 183.977 617.396 185.081 618.86 185.081C620.156 185.081 621.076 183.977 621.076 182.751C621.076 181.688 620.156 180.584 618.86 180.584C617.396 180.584 616.476 181.688 616.476 182.751Z" fill="black"/>
<path d="M683.123 182.751C683.123 183.977 684.043 185.081 685.507 185.081C686.804 185.081 687.724 183.977 687.724 182.751C687.724 181.688 686.804 180.584 685.507 180.584C684.043 180.584 683.123 181.688 683.123 182.751Z" fill="black"/>
<path d="M-50 242.945C-50 244.172 -49.0798 245.276 -47.616 245.276C-46.3194 245.276 -45.3992 244.172 -45.3992 242.945C-45.3992 241.882 -46.3194 240.778 -47.616 240.778C-49.0798 240.778 -50 241.882 -50 242.945Z" fill="black"/>
<path d="M16.6475 242.945C16.6475 244.172 17.5677 245.276 19.0316 245.276C20.3282 245.276 21.2483 244.172 21.2483 242.945C21.2483 241.882 20.3282 240.778 19.0316 240.778C17.5677 240.778 16.6475 241.882 16.6475 242.945Z" fill="black"/>
<path d="M83.2951 242.945C83.2951 244.172 84.2153 245.276 85.6791 245.276C86.9757 245.276 87.8959 244.172 87.8959 242.945C87.8959 241.882 86.9757 240.778 85.6791 240.778C84.2153 240.778 83.2951 241.882 83.2951 242.945Z" fill="black"/>
<path d="M149.943 242.945C149.943 244.172 150.863 245.276 152.327 245.276C153.623 245.276 154.543 244.172 154.543 242.945C154.543 241.882 153.623 240.778 152.327 240.778C150.863 240.778 149.943 241.882 149.943 242.945Z" fill="black"/>
<path d="M216.59 242.945C216.59 244.172 217.51 245.276 218.974 245.276C220.271 245.276 221.191 244.172 221.191 242.945C221.191 241.882 220.271 240.778 218.974 240.778C217.51 240.778 216.59 241.882 216.59 242.945Z" fill="black"/>
<path d="M283.238 242.945C283.238 244.172 284.158 245.276 285.622 245.276C286.918 245.276 287.839 244.172 287.839 242.945C287.839 241.882 286.918 240.778 285.622 240.778C284.158 240.778 283.238 241.882 283.238 242.945Z" fill="black"/>
<path d="M349.885 242.945C349.885 244.172 350.805 245.276 352.269 245.276C353.566 245.276 354.486 244.172 354.486 242.945C354.486 241.882 353.566 240.778 352.269 240.778C350.805 240.778 349.885 241.882 349.885 242.945Z" fill="black"/>
<path d="M416.533 242.945C416.533 244.172 417.453 245.276 418.917 245.276C420.213 245.276 421.134 244.172 421.134 242.945C421.134 241.882 420.213 240.778 418.917 240.778C417.453 240.778 416.533 241.882 416.533 242.945Z" fill="black"/>
<path d="M483.18 242.945C483.18 244.172 484.101 245.276 485.564 245.276C486.861 245.276 487.781 244.172 487.781 242.945C487.781 241.882 486.861 240.778 485.564 240.778C484.101 240.778 483.18 241.882 483.18 242.945Z" fill="black"/>
<path d="M549.828 242.945C549.828 244.172 550.748 245.276 552.212 245.276C553.509 245.276 554.429 244.172 554.429 242.945C554.429 241.882 553.509 240.778 552.212 240.778C550.748 240.778 549.828 241.882 549.828 242.945Z" fill="black"/>
<path d="M616.476 242.945C616.476 244.172 617.396 245.276 618.86 245.276C620.156 245.276 621.076 244.172 621.076 242.945C621.076 241.882 620.156 240.778 618.86 240.778C617.396 240.778 616.476 241.882 616.476 242.945Z" fill="black"/>
<path d="M683.123 242.945C683.123 244.172 684.043 245.276 685.507 245.276C686.804 245.276 687.724 244.172 687.724 242.945C687.724 241.882 686.804 240.778 685.507 240.778C684.043 240.778 683.123 241.882 683.123 242.945Z" fill="black"/>
<path d="M-50 303.14C-50 304.366 -49.0798 305.47 -47.616 305.47C-46.3194 305.47 -45.3992 304.366 -45.3992 303.14C-45.3992 302.077 -46.3194 300.973 -47.616 300.973C-49.0798 300.973 -50 302.077 -50 303.14Z" fill="black"/>
<path d="M16.6475 303.14C16.6475 304.366 17.5677 305.47 19.0316 305.47C20.3282 305.47 21.2483 304.366 21.2483 303.14C21.2483 302.077 20.3282 300.973 19.0316 300.973C17.5677 300.973 16.6475 302.077 16.6475 303.14Z" fill="black"/>
<path d="M83.2951 303.14C83.2951 304.366 84.2153 305.47 85.6791 305.47C86.9757 305.47 87.8959 304.366 87.8959 303.14C87.8959 302.077 86.9757 300.973 85.6791 300.973C84.2153 300.973 83.2951 302.077 83.2951 303.14Z" fill="black"/>
<path d="M149.943 303.14C149.943 304.366 150.863 305.47 152.327 305.47C153.623 305.47 154.543 304.366 154.543 303.14C154.543 302.077 153.623 300.973 152.327 300.973C150.863 300.973 149.943 302.077 149.943 303.14Z" fill="black"/>
<path d="M216.59 303.14C216.59 304.366 217.51 305.47 218.974 305.47C220.271 305.47 221.191 304.366 221.191 303.14C221.191 302.077 220.271 300.973 218.974 300.973C217.51 300.973 216.59 302.077 216.59 303.14Z" fill="black"/>
<path d="M283.238 303.14C283.238 304.366 284.158 305.47 285.622 305.47C286.918 305.47 287.839 304.366 287.839 303.14C287.839 302.077 286.918 300.973 285.622 300.973C284.158 300.973 283.238 302.077 283.238 303.14Z" fill="black"/>
<path d="M349.885 303.14C349.885 304.366 350.805 305.47 352.269 305.47C353.566 305.47 354.486 304.366 354.486 303.14C354.486 302.077 353.566 300.973 352.269 300.973C350.805 300.973 349.885 302.077 349.885 303.14Z" fill="black"/>
<path d="M416.533 303.14C416.533 304.366 417.453 305.47 418.917 305.47C420.213 305.47 421.134 304.366 421.134 303.14C421.134 302.077 420.213 300.973 418.917 300.973C417.453 300.973 416.533 302.077 416.533 303.14Z" fill="black"/>
<path d="M483.18 303.14C483.18 304.366 484.101 305.47 485.564 305.47C486.861 305.47 487.781 304.366 487.781 303.14C487.781 302.077 486.861 300.973 485.564 300.973C484.101 300.973 483.18 302.077 483.18 303.14Z" fill="black"/>
<path d="M549.828 303.14C549.828 304.366 550.748 305.47 552.212 305.47C553.509 305.47 554.429 304.366 554.429 303.14C554.429 302.077 553.509 300.973 552.212 300.973C550.748 300.973 549.828 302.077 549.828 303.14Z" fill="black"/>
<path d="M616.476 303.14C616.476 304.366 617.396 305.47 618.86 305.47C620.156 305.47 621.076 304.366 621.076 303.14C621.076 302.077 620.156 300.973 618.86 300.973C617.396 300.973 616.476 302.077 616.476 303.14Z" fill="black"/>
<path d="M683.123 303.14C683.123 304.366 684.043 305.47 685.507 305.47C686.804 305.47 687.724 304.366 687.724 303.14C687.724 302.077 686.804 300.973 685.507 300.973C684.043 300.973 683.123 302.077 683.123 303.14Z" fill="black"/>
<path d="M-50 363.334C-50 364.561 -49.0798 365.665 -47.616 365.665C-46.3194 365.665 -45.3992 364.561 -45.3992 363.334C-45.3992 362.271 -46.3194 361.167 -47.616 361.167C-49.0798 361.167 -50 362.271 -50 363.334Z" fill="black"/>
<path d="M16.6475 363.334C16.6475 364.561 17.5677 365.665 19.0316 365.665C20.3282 365.665 21.2483 364.561 21.2483 363.334C21.2483 362.271 20.3282 361.167 19.0316 361.167C17.5677 361.167 16.6475 362.271 16.6475 363.334Z" fill="black"/>
<path d="M83.2951 363.334C83.2951 364.561 84.2153 365.665 85.6791 365.665C86.9757 365.665 87.8959 364.561 87.8959 363.334C87.8959 362.271 86.9757 361.167 85.6791 361.167C84.2153 361.167 83.2951 362.271 83.2951 363.334Z" fill="black"/>
<path d="M149.943 363.334C149.943 364.561 150.863 365.665 152.327 365.665C153.623 365.665 154.543 364.561 154.543 363.334C154.543 362.271 153.623 361.167 152.327 361.167C150.863 361.167 149.943 362.271 149.943 363.334Z" fill="black"/>
<path d="M216.59 363.334C216.59 364.561 217.51 365.665 218.974 365.665C220.271 365.665 221.191 364.561 221.191 363.334C221.191 362.271 220.271 361.167 218.974 361.167C217.51 361.167 216.59 362.271 216.59 363.334Z" fill="black"/>
<path d="M283.238 363.334C283.238 364.561 284.158 365.665 285.622 365.665C286.918 365.665 287.839 364.561 287.839 363.334C287.839 362.271 286.918 361.167 285.622 361.167C284.158 361.167 283.238 362.271 283.238 363.334Z" fill="black"/>
<path d="M349.885 363.334C349.885 364.561 350.805 365.665 352.269 365.665C353.566 365.665 354.486 364.561 354.486 363.334C354.486 362.271 353.566 361.167 352.269 361.167C350.805 361.167 349.885 362.271 349.885 363.334Z" fill="black"/>
<path d="M416.533 363.334C416.533 364.561 417.453 365.665 418.917 365.665C420.213 365.665 421.134 364.561 421.134 363.334C421.134 362.271 420.213 361.167 418.917 361.167C417.453 361.167 416.533 362.271 416.533 363.334Z" fill="black"/>
<path d="M483.18 363.334C483.18 364.561 484.101 365.665 485.564 365.665C486.861 365.665 487.781 364.561 487.781 363.334C487.781 362.271 486.861 361.167 485.564 361.167C484.101 361.167 483.18 362.271 483.18 363.334Z" fill="black"/>
<path d="M549.828 363.334C549.828 364.561 550.748 365.665 552.212 365.665C553.509 365.665 554.429 364.561 554.429 363.334C554.429 362.271 553.509 361.167 552.212 361.167C550.748 361.167 549.828 362.271 549.828 363.334Z" fill="black"/>
<path d="M616.476 363.334C616.476 364.561 617.396 365.665 618.86 365.665C620.156 365.665 621.076 364.561 621.076 363.334C621.076 362.271 620.156 361.167 618.86 361.167C617.396 361.167 616.476 362.271 616.476 363.334Z" fill="black"/>
<path d="M683.123 363.334C683.123 364.561 684.043 365.665 685.507 365.665C686.804 365.665 687.724 364.561 687.724 363.334C687.724 362.271 686.804 361.167 685.507 361.167C684.043 361.167 683.123 362.271 683.123 363.334Z" fill="black"/>
<path d="M-50 423.529C-50 424.756 -49.0798 425.86 -47.616 425.86C-46.3194 425.86 -45.3992 424.756 -45.3992 423.529C-45.3992 422.466 -46.3194 421.362 -47.616 421.362C-49.0798 421.362 -50 422.466 -50 423.529Z" fill="black"/>
<path d="M16.6475 423.529C16.6475 424.756 17.5677 425.86 19.0316 425.86C20.3282 425.86 21.2483 424.756 21.2483 423.529C21.2483 422.466 20.3282 421.362 19.0316 421.362C17.5677 421.362 16.6475 422.466 16.6475 423.529Z" fill="black"/>
<path d="M83.2951 423.529C83.2951 424.756 84.2153 425.86 85.6791 425.86C86.9757 425.86 87.8959 424.756 87.8959 423.529C87.8959 422.466 86.9757 421.362 85.6791 421.362C84.2153 421.362 83.2951 422.466 83.2951 423.529Z" fill="black"/>
<path d="M149.943 423.529C149.943 424.756 150.863 425.86 152.327 425.86C153.623 425.86 154.543 424.756 154.543 423.529C154.543 422.466 153.623 421.362 152.327 421.362C150.863 421.362 149.943 422.466 149.943 423.529Z" fill="black"/>
<path d="M216.59 423.529C216.59 424.756 217.51 425.86 218.974 425.86C220.271 425.86 221.191 424.756 221.191 423.529C221.191 422.466 220.271 421.362 218.974 421.362C217.51 421.362 216.59 422.466 216.59 423.529Z" fill="black"/>
<path d="M283.238 423.529C283.238 424.756 284.158 425.86 285.622 425.86C286.918 425.86 287.839 424.756 287.839 423.529C287.839 422.466 286.918 421.362 285.622 421.362C284.158 421.362 283.238 422.466 283.238 423.529Z" fill="black"/>
<path d="M349.885 423.529C349.885 424.756 350.805 425.86 352.269 425.86C353.566 425.86 354.486 424.756 354.486 423.529C354.486 422.466 353.566 421.362 352.269 421.362C350.805 421.362 349.885 422.466 349.885 423.529Z" fill="black"/>
<path d="M416.533 423.529C416.533 424.756 417.453 425.86 418.917 425.86C420.213 425.86 421.134 424.756 421.134 423.529C421.134 422.466 420.213 421.362 418.917 421.362C417.453 421.362 416.533 422.466 416.533 423.529Z" fill="black"/>
<path d="M483.18 423.529C483.18 424.756 484.101 425.86 485.564 425.86C486.861 425.86 487.781 424.756 487.781 423.529C487.781 422.466 486.861 421.362 485.564 421.362C484.101 421.362 483.18 422.466 483.18 423.529Z" fill="black"/>
<path d="M549.828 423.529C549.828 424.756 550.748 425.86 552.212 425.86C553.509 425.86 554.429 424.756 554.429 423.529C554.429 422.466 553.509 421.362 552.212 421.362C550.748 421.362 549.828 422.466 549.828 423.529Z" fill="black"/>
<path d="M616.476 423.529C616.476 424.756 617.396 425.86 618.86 425.86C620.156 425.86 621.076 424.756 621.076 423.529C621.076 422.466 620.156 421.362 618.86 421.362C617.396 421.362 616.476 422.466 616.476 423.529Z" fill="black"/>
<path d="M683.123 423.529C683.123 424.756 684.043 425.86 685.507 425.86C686.804 425.86 687.724 424.756 687.724 423.529C687.724 422.466 686.804 421.362 685.507 421.362C684.043 421.362 683.123 422.466 683.123 423.529Z" fill="black"/>
<path d="M-50 483.724C-50 484.95 -49.0798 486.054 -47.616 486.054C-46.3194 486.054 -45.3992 484.95 -45.3992 483.724C-45.3992 482.661 -46.3194 481.557 -47.616 481.557C-49.0798 481.557 -50 482.661 -50 483.724Z" fill="black"/>
<path d="M16.6475 483.724C16.6475 484.95 17.5677 486.054 19.0316 486.054C20.3282 486.054 21.2483 484.95 21.2483 483.724C21.2483 482.661 20.3282 481.557 19.0316 481.557C17.5677 481.557 16.6475 482.661 16.6475 483.724Z" fill="black"/>
<path d="M83.2951 483.724C83.2951 484.95 84.2153 486.054 85.6791 486.054C86.9757 486.054 87.8959 484.95 87.8959 483.724C87.8959 482.661 86.9757 481.557 85.6791 481.557C84.2153 481.557 83.2951 482.661 83.2951 483.724Z" fill="black"/>
<path d="M149.943 483.724C149.943 484.95 150.863 486.054 152.327 486.054C153.623 486.054 154.543 484.95 154.543 483.724C154.543 482.661 153.623 481.557 152.327 481.557C150.863 481.557 149.943 482.661 149.943 483.724Z" fill="black"/>
<path d="M216.59 483.724C216.59 484.95 217.51 486.054 218.974 486.054C220.271 486.054 221.191 484.95 221.191 483.724C221.191 482.661 220.271 481.557 218.974 481.557C217.51 481.557 216.59 482.661 216.59 483.724Z" fill="black"/>
<path d="M283.238 483.724C283.238 484.95 284.158 486.054 285.622 486.054C286.918 486.054 287.839 484.95 287.839 483.724C287.839 482.661 286.918 481.557 285.622 481.557C284.158 481.557 283.238 482.661 283.238 483.724Z" fill="black"/>
<path d="M349.885 483.724C349.885 484.95 350.805 486.054 352.269 486.054C353.566 486.054 354.486 484.95 354.486 483.724C354.486 482.661 353.566 481.557 352.269 481.557C350.805 481.557 349.885 482.661 349.885 483.724Z" fill="black"/>
<path d="M416.533 483.724C416.533 484.95 417.453 486.054 418.917 486.054C420.213 486.054 421.134 484.95 421.134 483.724C421.134 482.661 420.213 481.557 418.917 481.557C417.453 481.557 416.533 482.661 416.533 483.724Z" fill="black"/>
<path d="M483.18 483.724C483.18 484.95 484.101 486.054 485.564 486.054C486.861 486.054 487.781 484.95 487.781 483.724C487.781 482.661 486.861 481.557 485.564 481.557C484.101 481.557 483.18 482.661 483.18 483.724Z" fill="black"/>
<path d="M549.828 483.724C549.828 484.95 550.748 486.054 552.212 486.054C553.509 486.054 554.429 484.95 554.429 483.724C554.429 482.661 553.509 481.557 552.212 481.557C550.748 481.557 549.828 482.661 549.828 483.724Z" fill="black"/>
<path d="M616.476 483.724C616.476 484.95 617.396 486.054 618.86 486.054C620.156 486.054 621.076 484.95 621.076 483.724C621.076 482.661 620.156 481.557 618.86 481.557C617.396 481.557 616.476 482.661 616.476 483.724Z" fill="black"/>
<path d="M683.123 483.724C683.123 484.95 684.043 486.054 685.507 486.054C686.804 486.054 687.724 484.95 687.724 483.724C687.724 482.661 686.804 481.557 685.507 481.557C684.043 481.557 683.123 482.661 683.123 483.724Z" fill="black"/>
<path d="M-50 543.918C-50 545.145 -49.0798 546.249 -47.616 546.249C-46.3194 546.249 -45.3992 545.145 -45.3992 543.918C-45.3992 542.855 -46.3194 541.751 -47.616 541.751C-49.0798 541.751 -50 542.855 -50 543.918Z" fill="black"/>
<path d="M16.6475 543.918C16.6475 545.145 17.5677 546.249 19.0316 546.249C20.3282 546.249 21.2483 545.145 21.2483 543.918C21.2483 542.855 20.3282 541.751 19.0316 541.751C17.5677 541.751 16.6475 542.855 16.6475 543.918Z" fill="black"/>
<path d="M83.2951 543.918C83.2951 545.145 84.2153 546.249 85.6791 546.249C86.9757 546.249 87.8959 545.145 87.8959 543.918C87.8959 542.855 86.9757 541.751 85.6791 541.751C84.2153 541.751 83.2951 542.855 83.2951 543.918Z" fill="black"/>
<path d="M149.943 543.918C149.943 545.145 150.863 546.249 152.327 546.249C153.623 546.249 154.543 545.145 154.543 543.918C154.543 542.855 153.623 541.751 152.327 541.751C150.863 541.751 149.943 542.855 149.943 543.918Z" fill="black"/>
<path d="M216.59 543.918C216.59 545.145 217.51 546.249 218.974 546.249C220.271 546.249 221.191 545.145 221.191 543.918C221.191 542.855 220.271 541.751 218.974 541.751C217.51 541.751 216.59 542.855 216.59 543.918Z" fill="black"/>
<path d="M283.238 543.918C283.238 545.145 284.158 546.249 285.622 546.249C286.918 546.249 287.839 545.145 287.839 543.918C287.839 542.855 286.918 541.751 285.622 541.751C284.158 541.751 283.238 542.855 283.238 543.918Z" fill="black"/>
<path d="M349.885 543.918C349.885 545.145 350.805 546.249 352.269 546.249C353.566 546.249 354.486 545.145 354.486 543.918C354.486 542.855 353.566 541.751 352.269 541.751C350.805 541.751 349.885 542.855 349.885 543.918Z" fill="black"/>
<path d="M416.533 543.918C416.533 545.145 417.453 546.249 418.917 546.249C420.213 546.249 421.134 545.145 421.134 543.918C421.134 542.855 420.213 541.751 418.917 541.751C417.453 541.751 416.533 542.855 416.533 543.918Z" fill="black"/>
<path d="M483.18 543.918C483.18 545.145 484.101 546.249 485.564 546.249C486.861 546.249 487.781 545.145 487.781 543.918C487.781 542.855 486.861 541.751 485.564 541.751C484.101 541.751 483.18 542.855 483.18 543.918Z" fill="black"/>
<path d="M549.828 543.918C549.828 545.145 550.748 546.249 552.212 546.249C553.509 546.249 554.429 545.145 554.429 543.918C554.429 542.855 553.509 541.751 552.212 541.751C550.748 541.751 549.828 542.855 549.828 543.918Z" fill="black"/>
<path d="M616.476 543.918C616.476 545.145 617.396 546.249 618.86 546.249C620.156 546.249 621.076 545.145 621.076 543.918C621.076 542.855 620.156 541.751 618.86 541.751C617.396 541.751 616.476 542.855 616.476 543.918Z" fill="black"/>
<path d="M683.123 543.918C683.123 545.145 684.043 546.249 685.507 546.249C686.804 546.249 687.724 545.145 687.724 543.918C687.724 542.855 686.804 541.751 685.507 541.751C684.043 541.751 683.123 542.855 683.123 543.918Z" fill="black"/>
<path d="M-50 604.113C-50 605.339 -49.0798 606.443 -47.616 606.443C-46.3194 606.443 -45.3992 605.339 -45.3992 604.113C-45.3992 603.05 -46.3194 601.946 -47.616 601.946C-49.0798 601.946 -50 603.05 -50 604.113Z" fill="black"/>
<path d="M16.6475 604.113C16.6475 605.339 17.5677 606.443 19.0316 606.443C20.3282 606.443 21.2483 605.339 21.2483 604.113C21.2483 603.05 20.3282 601.946 19.0316 601.946C17.5677 601.946 16.6475 603.05 16.6475 604.113Z" fill="black"/>
<path d="M83.2951 604.113C83.2951 605.339 84.2153 606.443 85.6791 606.443C86.9757 606.443 87.8959 605.339 87.8959 604.113C87.8959 603.05 86.9757 601.946 85.6791 601.946C84.2153 601.946 83.2951 603.05 83.2951 604.113Z" fill="black"/>
<path d="M149.943 604.113C149.943 605.339 150.863 606.443 152.327 606.443C153.623 606.443 154.543 605.339 154.543 604.113C154.543 603.05 153.623 601.946 152.327 601.946C150.863 601.946 149.943 603.05 149.943 604.113Z" fill="black"/>
<path d="M216.59 604.113C216.59 605.339 217.51 606.443 218.974 606.443C220.271 606.443 221.191 605.339 221.191 604.113C221.191 603.05 220.271 601.946 218.974 601.946C217.51 601.946 216.59 603.05 216.59 604.113Z" fill="black"/>
<path d="M283.238 604.113C283.238 605.339 284.158 606.443 285.622 606.443C286.918 606.443 287.839 605.339 287.839 604.113C287.839 603.05 286.918 601.946 285.622 601.946C284.158 601.946 283.238 603.05 283.238 604.113Z" fill="black"/>
<path d="M349.885 604.113C349.885 605.339 350.805 606.443 352.269 606.443C353.566 606.443 354.486 605.339 354.486 604.113C354.486 603.05 353.566 601.946 352.269 601.946C350.805 601.946 349.885 603.05 349.885 604.113Z" fill="black"/>
<path d="M416.533 604.113C416.533 605.339 417.453 606.443 418.917 606.443C420.213 606.443 421.134 605.339 421.134 604.113C421.134 603.05 420.213 601.946 418.917 601.946C417.453 601.946 416.533 603.05 416.533 604.113Z" fill="black"/>
<path d="M483.18 604.113C483.18 605.339 484.101 606.443 485.564 606.443C486.861 606.443 487.781 605.339 487.781 604.113C487.781 603.05 486.861 601.946 485.564 601.946C484.101 601.946 483.18 603.05 483.18 604.113Z" fill="black"/>
<path d="M549.828 604.113C549.828 605.339 550.748 606.443 552.212 606.443C553.509 606.443 554.429 605.339 554.429 604.113C554.429 603.05 553.509 601.946 552.212 601.946C550.748 601.946 549.828 603.05 549.828 604.113Z" fill="black"/>
<path d="M616.476 604.113C616.476 605.339 617.396 606.443 618.86 606.443C620.156 606.443 621.076 605.339 621.076 604.113C621.076 603.05 620.156 601.946 618.86 601.946C617.396 601.946 616.476 603.05 616.476 604.113Z" fill="black"/>
<path d="M683.123 604.113C683.123 605.339 684.043 606.443 685.507 606.443C686.804 606.443 687.724 605.339 687.724 604.113C687.724 603.05 686.804 601.946 685.507 601.946C684.043 601.946 683.123 603.05 683.123 604.113Z" fill="black"/>
<path d="M-50 664.307C-50 665.534 -49.0798 666.638 -47.616 666.638C-46.3194 666.638 -45.3992 665.534 -45.3992 664.307C-45.3992 663.244 -46.3194 662.14 -47.616 662.14C-49.0798 662.14 -50 663.244 -50 664.307Z" fill="black"/>
<path d="M16.6475 664.307C16.6475 665.534 17.5677 666.638 19.0316 666.638C20.3282 666.638 21.2483 665.534 21.2483 664.307C21.2483 663.244 20.3282 662.14 19.0316 662.14C17.5677 662.14 16.6475 663.244 16.6475 664.307Z" fill="black"/>
<path d="M83.2951 664.307C83.2951 665.534 84.2153 666.638 85.6791 666.638C86.9757 666.638 87.8959 665.534 87.8959 664.307C87.8959 663.244 86.9757 662.14 85.6791 662.14C84.2153 662.14 83.2951 663.244 83.2951 664.307Z" fill="black"/>
<path d="M149.943 664.307C149.943 665.534 150.863 666.638 152.327 666.638C153.623 666.638 154.543 665.534 154.543 664.307C154.543 663.244 153.623 662.14 152.327 662.14C150.863 662.14 149.943 663.244 149.943 664.307Z" fill="black"/>
<path d="M216.59 664.307C216.59 665.534 217.51 666.638 218.974 666.638C220.271 666.638 221.191 665.534 221.191 664.307C221.191 663.244 220.271 662.14 218.974 662.14C217.51 662.14 216.59 663.244 216.59 664.307Z" fill="black"/>
<path d="M283.238 664.307C283.238 665.534 284.158 666.638 285.622 666.638C286.918 666.638 287.839 665.534 287.839 664.307C287.839 663.244 286.918 662.14 285.622 662.14C284.158 662.14 283.238 663.244 283.238 664.307Z" fill="black"/>
<path d="M349.885 664.307C349.885 665.534 350.805 666.638 352.269 666.638C353.566 666.638 354.486 665.534 354.486 664.307C354.486 663.244 353.566 662.14 352.269 662.14C350.805 662.14 349.885 663.244 349.885 664.307Z" fill="black"/>
<path d="M416.533 664.307C416.533 665.534 417.453 666.638 418.917 666.638C420.213 666.638 421.134 665.534 421.134 664.307C421.134 663.244 420.213 662.14 418.917 662.14C417.453 662.14 416.533 663.244 416.533 664.307Z" fill="black"/>
<path d="M483.18 664.307C483.18 665.534 484.101 666.638 485.564 666.638C486.861 666.638 487.781 665.534 487.781 664.307C487.781 663.244 486.861 662.14 485.564 662.14C484.101 662.14 483.18 663.244 483.18 664.307Z" fill="black"/>
<path d="M549.828 664.307C549.828 665.534 550.748 666.638 552.212 666.638C553.509 666.638 554.429 665.534 554.429 664.307C554.429 663.244 553.509 662.14 552.212 662.14C550.748 662.14 549.828 663.244 549.828 664.307Z" fill="black"/>
<path d="M616.476 664.307C616.476 665.534 617.396 666.638 618.86 666.638C620.156 666.638 621.076 665.534 621.076 664.307C621.076 663.244 620.156 662.14 618.86 662.14C617.396 662.14 616.476 663.244 616.476 664.307Z" fill="black"/>
<path d="M683.123 664.307C683.123 665.534 684.043 666.638 685.507 666.638C686.804 666.638 687.724 665.534 687.724 664.307C687.724 663.244 686.804 662.14 685.507 662.14C684.043 662.14 683.123 663.244 683.123 664.307Z" fill="black"/>
<path d="M-50 724.502C-50 725.729 -49.0798 726.833 -47.616 726.833C-46.3194 726.833 -45.3992 725.729 -45.3992 724.502C-45.3992 723.439 -46.3194 722.335 -47.616 722.335C-49.0798 722.335 -50 723.439 -50 724.502Z" fill="black"/>
<path d="M16.6475 724.502C16.6475 725.729 17.5677 726.833 19.0316 726.833C20.3282 726.833 21.2483 725.729 21.2483 724.502C21.2483 723.439 20.3282 722.335 19.0316 722.335C17.5677 722.335 16.6475 723.439 16.6475 724.502Z" fill="black"/>
<path d="M83.2951 724.502C83.2951 725.729 84.2153 726.833 85.6791 726.833C86.9757 726.833 87.8959 725.729 87.8959 724.502C87.8959 723.439 86.9757 722.335 85.6791 722.335C84.2153 722.335 83.2951 723.439 83.2951 724.502Z" fill="black"/>
<path d="M149.943 724.502C149.943 725.729 150.863 726.833 152.327 726.833C153.623 726.833 154.543 725.729 154.543 724.502C154.543 723.439 153.623 722.335 152.327 722.335C150.863 722.335 149.943 723.439 149.943 724.502Z" fill="black"/>
<path d="M216.59 724.502C216.59 725.729 217.51 726.833 218.974 726.833C220.271 726.833 221.191 725.729 221.191 724.502C221.191 723.439 220.271 722.335 218.974 722.335C217.51 722.335 216.59 723.439 216.59 724.502Z" fill="black"/>
<path d="M283.238 724.502C283.238 725.729 284.158 726.833 285.622 726.833C286.918 726.833 287.839 725.729 287.839 724.502C287.839 723.439 286.918 722.335 285.622 722.335C284.158 722.335 283.238 723.439 283.238 724.502Z" fill="black"/>
<path d="M349.885 724.502C349.885 725.729 350.805 726.833 352.269 726.833C353.566 726.833 354.486 725.729 354.486 724.502C354.486 723.439 353.566 722.335 352.269 722.335C350.805 722.335 349.885 723.439 349.885 724.502Z" fill="black"/>
<path d="M416.533 724.502C416.533 725.729 417.453 726.833 418.917 726.833C420.213 726.833 421.134 725.729 421.134 724.502C421.134 723.439 420.213 722.335 418.917 722.335C417.453 722.335 416.533 723.439 416.533 724.502Z" fill="black"/>
<path d="M483.18 724.502C483.18 725.729 484.101 726.833 485.564 726.833C486.861 726.833 487.781 725.729 487.781 724.502C487.781 723.439 486.861 722.335 485.564 722.335C484.101 722.335 483.18 723.439 483.18 724.502Z" fill="black"/>
<path d="M549.828 724.502C549.828 725.729 550.748 726.833 552.212 726.833C553.509 726.833 554.429 725.729 554.429 724.502C554.429 723.439 553.509 722.335 552.212 722.335C550.748 722.335 549.828 723.439 549.828 724.502Z" fill="black"/>
<path d="M616.476 724.502C616.476 725.729 617.396 726.833 618.86 726.833C620.156 726.833 621.076 725.729 621.076 724.502C621.076 723.439 620.156 722.335 618.86 722.335C617.396 722.335 616.476 723.439 616.476 724.502Z" fill="black"/>
<path d="M683.123 724.502C683.123 725.729 684.043 726.833 685.507 726.833C686.804 726.833 687.724 725.729 687.724 724.502C687.724 723.439 686.804 722.335 685.507 722.335C684.043 722.335 683.123 723.439 683.123 724.502Z" fill="black"/>
<path d="M-50 784.697C-50 785.923 -49.0798 787.027 -47.616 787.027C-46.3194 787.027 -45.3992 785.923 -45.3992 784.697C-45.3992 783.634 -46.3194 782.53 -47.616 782.53C-49.0798 782.53 -50 783.634 -50 784.697Z" fill="black"/>
<path d="M16.6475 784.697C16.6475 785.923 17.5677 787.027 19.0316 787.027C20.3282 787.027 21.2483 785.923 21.2483 784.697C21.2483 783.634 20.3282 782.53 19.0316 782.53C17.5677 782.53 16.6475 783.634 16.6475 784.697Z" fill="black"/>
<path d="M83.2951 784.697C83.2951 785.923 84.2153 787.027 85.6791 787.027C86.9757 787.027 87.8959 785.923 87.8959 784.697C87.8959 783.634 86.9757 782.53 85.6791 782.53C84.2153 782.53 83.2951 783.634 83.2951 784.697Z" fill="black"/>
<path d="M149.943 784.697C149.943 785.923 150.863 787.027 152.327 787.027C153.623 787.027 154.543 785.923 154.543 784.697C154.543 783.634 153.623 782.53 152.327 782.53C150.863 782.53 149.943 783.634 149.943 784.697Z" fill="black"/>
<path d="M216.59 784.697C216.59 785.923 217.51 787.027 218.974 787.027C220.271 787.027 221.191 785.923 221.191 784.697C221.191 783.634 220.271 782.53 218.974 782.53C217.51 782.53 216.59 783.634 216.59 784.697Z" fill="black"/>
<path d="M283.238 784.697C283.238 785.923 284.158 787.027 285.622 787.027C286.918 787.027 287.839 785.923 287.839 784.697C287.839 783.634 286.918 782.53 285.622 782.53C284.158 782.53 283.238 783.634 283.238 784.697Z" fill="black"/>
<path d="M349.885 784.697C349.885 785.923 350.805 787.027 352.269 787.027C353.566 787.027 354.486 785.923 354.486 784.697C354.486 783.634 353.566 782.53 352.269 782.53C350.805 782.53 349.885 783.634 349.885 784.697Z" fill="black"/>
<path d="M416.533 784.697C416.533 785.923 417.453 787.027 418.917 787.027C420.213 787.027 421.134 785.923 421.134 784.697C421.134 783.634 420.213 782.53 418.917 782.53C417.453 782.53 416.533 783.634 416.533 784.697Z" fill="black"/>
<path d="M483.18 784.697C483.18 785.923 484.101 787.027 485.564 787.027C486.861 787.027 487.781 785.923 487.781 784.697C487.781 783.634 486.861 782.53 485.564 782.53C484.101 782.53 483.18 783.634 483.18 784.697Z" fill="black"/>
<path d="M549.828 784.697C549.828 785.923 550.748 787.027 552.212 787.027C553.509 787.027 554.429 785.923 554.429 784.697C554.429 783.634 553.509 782.53 552.212 782.53C550.748 782.53 549.828 783.634 549.828 784.697Z" fill="black"/>
<path d="M616.476 784.697C616.476 785.923 617.396 787.027 618.86 787.027C620.156 787.027 621.076 785.923 621.076 784.697C621.076 783.634 620.156 782.53 618.86 782.53C617.396 782.53 616.476 783.634 616.476 784.697Z" fill="black"/>
<path d="M683.123 784.697C683.123 785.923 684.043 787.027 685.507 787.027C686.804 787.027 687.724 785.923 687.724 784.697C687.724 783.634 686.804 782.53 685.507 782.53C684.043 782.53 683.123 783.634 683.123 784.697Z" fill="black"/>
<path d="M-50 844.891C-50 846.118 -49.0798 847.222 -47.616 847.222C-46.3194 847.222 -45.3992 846.118 -45.3992 844.891C-45.3992 843.828 -46.3194 842.724 -47.616 842.724C-49.0798 842.724 -50 843.828 -50 844.891Z" fill="black"/>
<path d="M16.6475 844.891C16.6475 846.118 17.5677 847.222 19.0316 847.222C20.3282 847.222 21.2483 846.118 21.2483 844.891C21.2483 843.828 20.3282 842.724 19.0316 842.724C17.5677 842.724 16.6475 843.828 16.6475 844.891Z" fill="black"/>
<path d="M83.2951 844.891C83.2951 846.118 84.2153 847.222 85.6791 847.222C86.9757 847.222 87.8959 846.118 87.8959 844.891C87.8959 843.828 86.9757 842.724 85.6791 842.724C84.2153 842.724 83.2951 843.828 83.2951 844.891Z" fill="black"/>
<path d="M149.943 844.891C149.943 846.118 150.863 847.222 152.327 847.222C153.623 847.222 154.543 846.118 154.543 844.891C154.543 843.828 153.623 842.724 152.327 842.724C150.863 842.724 149.943 843.828 149.943 844.891Z" fill="black"/>
<path d="M216.59 844.891C216.59 846.118 217.51 847.222 218.974 847.222C220.271 847.222 221.191 846.118 221.191 844.891C221.191 843.828 220.271 842.724 218.974 842.724C217.51 842.724 216.59 843.828 216.59 844.891Z" fill="black"/>
<path d="M283.238 844.891C283.238 846.118 284.158 847.222 285.622 847.222C286.918 847.222 287.839 846.118 287.839 844.891C287.839 843.828 286.918 842.724 285.622 842.724C284.158 842.724 283.238 843.828 283.238 844.891Z" fill="black"/>
<path d="M349.885 844.891C349.885 846.118 350.805 847.222 352.269 847.222C353.566 847.222 354.486 846.118 354.486 844.891C354.486 843.828 353.566 842.724 352.269 842.724C350.805 842.724 349.885 843.828 349.885 844.891Z" fill="black"/>
<path d="M416.533 844.891C416.533 846.118 417.453 847.222 418.917 847.222C420.213 847.222 421.134 846.118 421.134 844.891C421.134 843.828 420.213 842.724 418.917 842.724C417.453 842.724 416.533 843.828 416.533 844.891Z" fill="black"/>
<path d="M483.18 844.891C483.18 846.118 484.101 847.222 485.564 847.222C486.861 847.222 487.781 846.118 487.781 844.891C487.781 843.828 486.861 842.724 485.564 842.724C484.101 842.724 483.18 843.828 483.18 844.891Z" fill="black"/>
<path d="M549.828 844.891C549.828 846.118 550.748 847.222 552.212 847.222C553.509 847.222 554.429 846.118 554.429 844.891C554.429 843.828 553.509 842.724 552.212 842.724C550.748 842.724 549.828 843.828 549.828 844.891Z" fill="black"/>
<path d="M616.476 844.891C616.476 846.118 617.396 847.222 618.86 847.222C620.156 847.222 621.076 846.118 621.076 844.891C621.076 843.828 620.156 842.724 618.86 842.724C617.396 842.724 616.476 843.828 616.476 844.891Z" fill="black"/>
<path d="M683.123 844.891C683.123 846.118 684.043 847.222 685.507 847.222C686.804 847.222 687.724 846.118 687.724 844.891C687.724 843.828 686.804 842.724 685.507 842.724C684.043 842.724 683.123 843.828 683.123 844.891Z" fill="black"/>
<path d="M-50 905.086C-50 906.312 -49.0798 907.416 -47.616 907.416C-46.3194 907.416 -45.3992 906.312 -45.3992 905.086C-45.3992 904.023 -46.3194 902.919 -47.616 902.919C-49.0798 902.919 -50 904.023 -50 905.086Z" fill="black"/>
<path d="M16.6475 905.086C16.6475 906.312 17.5677 907.416 19.0316 907.416C20.3282 907.416 21.2483 906.312 21.2483 905.086C21.2483 904.023 20.3282 902.919 19.0316 902.919C17.5677 902.919 16.6475 904.023 16.6475 905.086Z" fill="black"/>
<path d="M83.2951 905.086C83.2951 906.312 84.2153 907.416 85.6791 907.416C86.9757 907.416 87.8959 906.312 87.8959 905.086C87.8959 904.023 86.9757 902.919 85.6791 902.919C84.2153 902.919 83.2951 904.023 83.2951 905.086Z" fill="black"/>
<path d="M149.943 905.086C149.943 906.312 150.863 907.416 152.327 907.416C153.623 907.416 154.543 906.312 154.543 905.086C154.543 904.023 153.623 902.919 152.327 902.919C150.863 902.919 149.943 904.023 149.943 905.086Z" fill="black"/>
<path d="M216.59 905.086C216.59 906.312 217.51 907.416 218.974 907.416C220.271 907.416 221.191 906.312 221.191 905.086C221.191 904.023 220.271 902.919 218.974 902.919C217.51 902.919 216.59 904.023 216.59 905.086Z" fill="black"/>
<path d="M283.238 905.086C283.238 906.312 284.158 907.416 285.622 907.416C286.918 907.416 287.839 906.312 287.839 905.086C287.839 904.023 286.918 902.919 285.622 902.919C284.158 902.919 283.238 904.023 283.238 905.086Z" fill="black"/>
<path d="M349.885 905.086C349.885 906.312 350.805 907.416 352.269 907.416C353.566 907.416 354.486 906.312 354.486 905.086C354.486 904.023 353.566 902.919 352.269 902.919C350.805 902.919 349.885 904.023 349.885 905.086Z" fill="black"/>
<path d="M416.533 905.086C416.533 906.312 417.453 907.416 418.917 907.416C420.213 907.416 421.134 906.312 421.134 905.086C421.134 904.023 420.213 902.919 418.917 902.919C417.453 902.919 416.533 904.023 416.533 905.086Z" fill="black"/>
<path d="M483.18 905.086C483.18 906.312 484.101 907.416 485.564 907.416C486.861 907.416 487.781 906.312 487.781 905.086C487.781 904.023 486.861 902.919 485.564 902.919C484.101 902.919 483.18 904.023 483.18 905.086Z" fill="black"/>
<path d="M549.828 905.086C549.828 906.312 550.748 907.416 552.212 907.416C553.509 907.416 554.429 906.312 554.429 905.086C554.429 904.023 553.509 902.919 552.212 902.919C550.748 902.919 549.828 904.023 549.828 905.086Z" fill="black"/>
<path d="M616.476 905.086C616.476 906.312 617.396 907.416 618.86 907.416C620.156 907.416 621.076 906.312 621.076 905.086C621.076 904.023 620.156 902.919 618.86 902.919C617.396 902.919 616.476 904.023 616.476 905.086Z" fill="black"/>
<path d="M683.123 905.086C683.123 906.312 684.043 907.416 685.507 907.416C686.804 907.416 687.724 906.312 687.724 905.086C687.724 904.023 686.804 902.919 685.507 902.919C684.043 902.919 683.123 904.023 683.123 905.086Z" fill="black"/>
<path d="M-50 965.28C-50 966.507 -49.0798 967.611 -47.616 967.611C-46.3194 967.611 -45.3992 966.507 -45.3992 965.28C-45.3992 964.217 -46.3194 963.113 -47.616 963.113C-49.0798 963.113 -50 964.217 -50 965.28Z" fill="black"/>
<path d="M16.6475 965.28C16.6475 966.507 17.5677 967.611 19.0316 967.611C20.3282 967.611 21.2483 966.507 21.2483 965.28C21.2483 964.217 20.3282 963.113 19.0316 963.113C17.5677 963.113 16.6475 964.217 16.6475 965.28Z" fill="black"/>
<path d="M83.2951 965.28C83.2951 966.507 84.2153 967.611 85.6791 967.611C86.9757 967.611 87.8959 966.507 87.8959 965.28C87.8959 964.217 86.9757 963.113 85.6791 963.113C84.2153 963.113 83.2951 964.217 83.2951 965.28Z" fill="black"/>
<path d="M149.943 965.28C149.943 966.507 150.863 967.611 152.327 967.611C153.623 967.611 154.543 966.507 154.543 965.28C154.543 964.217 153.623 963.113 152.327 963.113C150.863 963.113 149.943 964.217 149.943 965.28Z" fill="black"/>
<path d="M216.59 965.28C216.59 966.507 217.51 967.611 218.974 967.611C220.271 967.611 221.191 966.507 221.191 965.28C221.191 964.217 220.271 963.113 218.974 963.113C217.51 963.113 216.59 964.217 216.59 965.28Z" fill="black"/>
<path d="M283.238 965.28C283.238 966.507 284.158 967.611 285.622 967.611C286.918 967.611 287.839 966.507 287.839 965.28C287.839 964.217 286.918 963.113 285.622 963.113C284.158 963.113 283.238 964.217 283.238 965.28Z" fill="black"/>
<path d="M349.885 965.28C349.885 966.507 350.805 967.611 352.269 967.611C353.566 967.611 354.486 966.507 354.486 965.28C354.486 964.217 353.566 963.113 352.269 963.113C350.805 963.113 349.885 964.217 349.885 965.28Z" fill="black"/>
<path d="M416.533 965.28C416.533 966.507 417.453 967.611 418.917 967.611C420.213 967.611 421.134 966.507 421.134 965.28C421.134 964.217 420.213 963.113 418.917 963.113C417.453 963.113 416.533 964.217 416.533 965.28Z" fill="black"/>
<path d="M483.18 965.28C483.18 966.507 484.101 967.611 485.564 967.611C486.861 967.611 487.781 966.507 487.781 965.28C487.781 964.217 486.861 963.113 485.564 963.113C484.101 963.113 483.18 964.217 483.18 965.28Z" fill="black"/>
<path d="M549.828 965.28C549.828 966.507 550.748 967.611 552.212 967.611C553.509 967.611 554.429 966.507 554.429 965.28C554.429 964.217 553.509 963.113 552.212 963.113C550.748 963.113 549.828 964.217 549.828 965.28Z" fill="black"/>
<path d="M616.476 965.28C616.476 966.507 617.396 967.611 618.86 967.611C620.156 967.611 621.076 966.507 621.076 965.28C621.076 964.217 620.156 963.113 618.86 963.113C617.396 963.113 616.476 964.217 616.476 965.28Z" fill="black"/>
<path d="M683.123 965.28C683.123 966.507 684.043 967.611 685.507 967.611C686.804 967.611 687.724 966.507 687.724 965.28C687.724 964.217 686.804 963.113 685.507 963.113C684.043 963.113 683.123 964.217 683.123 965.28Z" fill="black"/>
<path d="M-50 1025.47C-50 1026.7 -49.0798 1027.81 -47.616 1027.81C-46.3194 1027.81 -45.3992 1026.7 -45.3992 1025.47C-45.3992 1024.41 -46.3194 1023.31 -47.616 1023.31C-49.0798 1023.31 -50 1024.41 -50 1025.47Z" fill="black"/>
<path d="M83.2951 1025.47C83.2951 1026.7 84.2153 1027.81 85.6791 1027.81C86.9757 1027.81 87.8959 1026.7 87.8959 1025.47C87.8959 1024.41 86.9757 1023.31 85.6791 1023.31C84.2153 1023.31 83.2951 1024.41 83.2951 1025.47Z" fill="black"/>
<path d="M149.943 1025.47C149.943 1026.7 150.863 1027.81 152.327 1027.81C153.623 1027.81 154.543 1026.7 154.543 1025.47C154.543 1024.41 153.623 1023.31 152.327 1023.31C150.863 1023.31 149.943 1024.41 149.943 1025.47Z" fill="black"/>
<path d="M216.59 1025.47C216.59 1026.7 217.51 1027.81 218.974 1027.81C220.271 1027.81 221.191 1026.7 221.191 1025.47C221.191 1024.41 220.271 1023.31 218.974 1023.31C217.51 1023.31 216.59 1024.41 216.59 1025.47Z" fill="black"/>
<path d="M283.238 1025.47C283.238 1026.7 284.158 1027.81 285.622 1027.81C286.918 1027.81 287.839 1026.7 287.839 1025.47C287.839 1024.41 286.918 1023.31 285.622 1023.31C284.158 1023.31 283.238 1024.41 283.238 1025.47Z" fill="black"/>
<path d="M349.885 1025.47C349.885 1026.7 350.805 1027.81 352.269 1027.81C353.566 1027.81 354.486 1026.7 354.486 1025.47C354.486 1024.41 353.566 1023.31 352.269 1023.31C350.805 1023.31 349.885 1024.41 349.885 1025.47Z" fill="black"/>
<path d="M416.533 1025.47C416.533 1026.7 417.453 1027.81 418.917 1027.81C420.213 1027.81 421.134 1026.7 421.134 1025.47C421.134 1024.41 420.213 1023.31 418.917 1023.31C417.453 1023.31 416.533 1024.41 416.533 1025.47Z" fill="black"/>
<path d="M483.18 1025.47C483.18 1026.7 484.101 1027.81 485.564 1027.81C486.861 1027.81 487.781 1026.7 487.781 1025.47C487.781 1024.41 486.861 1023.31 485.564 1023.31C484.101 1023.31 483.18 1024.41 483.18 1025.47Z" fill="black"/>
<path d="M549.828 1025.47C549.828 1026.7 550.748 1027.81 552.212 1027.81C553.509 1027.81 554.429 1026.7 554.429 1025.47C554.429 1024.41 553.509 1023.31 552.212 1023.31C550.748 1023.31 549.828 1024.41 549.828 1025.47Z" fill="black"/>
<path d="M616.476 1025.47C616.476 1026.7 617.396 1027.81 618.86 1027.81C620.156 1027.81 621.076 1026.7 621.076 1025.47C621.076 1024.41 620.156 1023.31 618.86 1023.31C617.396 1023.31 616.476 1024.41 616.476 1025.47Z" fill="black"/>
<path d="M683.123 1025.47C683.123 1026.7 684.043 1027.81 685.507 1027.81C686.804 1027.81 687.724 1026.7 687.724 1025.47C687.724 1024.41 686.804 1023.31 685.507 1023.31C684.043 1023.31 683.123 1024.41 683.123 1025.47Z" fill="black"/>
</g>
</svg>